<svg width="193" height="55" viewBox="0 0 193 55" fill="none" xmlns="http://www.w3.org/2000/svg">
<path d="M32.6961 28.6473C32.7197 26.8917 33.2072 25.1703 34.113 23.6434C35.0189 22.1164 36.3138 20.8335 37.8772 19.9139C36.884 18.5569 35.5738 17.4401 34.0505 16.6523C32.5273 15.8645 30.833 15.4273 29.1022 15.3755C25.4102 15.0047 21.831 17.489 19.9496 17.489C18.0319 17.489 15.1352 15.4123 12.016 15.4737C9.99837 15.5361 8.03205 16.0974 6.30862 17.1029C4.58518 18.1084 3.16339 19.5239 2.18178 21.2115C-2.07032 28.2545 1.10136 38.6053 5.17452 44.2984C7.21241 47.0861 9.59412 50.2 12.7105 50.0896C15.7601 49.9686 16.8991 48.2292 20.5802 48.2292C24.2272 48.2292 25.2958 50.0896 28.4754 50.0194C31.7478 49.9686 33.8095 47.2193 35.7759 44.4052C37.2401 42.4188 38.3669 40.2235 39.1143 37.9004C37.2132 37.1312 35.5908 35.8435 34.4494 34.1981C33.3081 32.5526 32.6983 30.6221 32.6961 28.6473Z" fill="white"/>
<path d="M26.6897 11.6314C28.4739 9.58229 29.3529 6.94847 29.14 4.28931C26.4141 4.56321 23.8962 5.80959 22.0878 7.7801C21.2037 8.74275 20.5265 9.86267 20.0951 11.0758C19.6636 12.289 19.4863 13.5716 19.5733 14.8504C20.9367 14.8638 22.2856 14.5811 23.5182 14.0235C24.7509 13.4659 25.8353 12.648 26.6897 11.6314Z" fill="white"/>
<path d="M61.2422 17.1908H57.2448V5.09816H61.1753C62.3796 5.09816 63.4333 5.35462 64.3365 5.86754C65.2508 6.36931 65.9589 7.07736 66.4606 7.9917C66.9735 8.89488 67.23 9.9486 67.23 11.1528C67.23 12.3459 66.9791 13.3997 66.4773 14.314C65.9756 15.2172 65.2731 15.9252 64.3699 16.4381C63.4779 16.9399 62.4353 17.1908 61.2422 17.1908ZM58.8839 5.86754V16.4381L58.1145 15.6688H61.1251C62.0283 15.6688 62.8033 15.4848 63.45 15.1168C64.1079 14.7489 64.6152 14.2304 64.972 13.5613C65.34 12.8812 65.524 12.0783 65.524 11.1528C65.524 10.2162 65.34 9.4078 64.972 8.72762C64.6152 8.04745 64.1023 7.52338 63.4333 7.15542C62.7754 6.78745 61.9837 6.60347 61.0582 6.60347H58.1145L58.8839 5.86754ZM68.5125 13.093C68.5125 12.2567 68.6965 11.5152 69.0645 10.8685C69.4324 10.2218 69.9342 9.71444 70.5698 9.34647C71.2165 8.97851 71.9524 8.79453 72.7776 8.79453C73.6027 8.79453 74.333 8.97851 74.9686 9.34647C75.6042 9.71444 76.106 10.2218 76.4739 10.8685C76.8419 11.5152 77.0259 12.2567 77.0259 13.093C77.0259 13.9293 76.8419 14.6708 76.4739 15.3175C76.106 15.9642 75.6042 16.4716 74.9686 16.8396C74.333 17.2075 73.6027 17.3915 72.7776 17.3915C71.9524 17.3915 71.2165 17.2075 70.5698 16.8396C69.9342 16.4716 69.4324 15.9642 69.0645 15.3175C68.6965 14.6708 68.5125 13.9293 68.5125 13.093ZM70.1015 13.093C70.1015 13.6617 70.213 14.1635 70.436 14.5983C70.6701 15.0332 70.9879 15.3733 71.3893 15.6186C71.7907 15.8639 72.2535 15.9866 72.7776 15.9866C73.3016 15.9866 73.7644 15.8639 74.1658 15.6186C74.5672 15.3733 74.8794 15.0332 75.1024 14.5983C75.3366 14.1635 75.4537 13.6617 75.4537 13.093C75.4537 12.5132 75.3366 12.0114 75.1024 11.5877C74.8794 11.1528 74.5672 10.8128 74.1658 10.5674C73.7644 10.3221 73.3016 10.1995 72.7776 10.1995C72.2535 10.1995 71.7907 10.3221 71.3893 10.5674C70.9879 10.8128 70.6701 11.1528 70.436 11.5877C70.213 12.0114 70.1015 12.5132 70.1015 13.093ZM80.1468 17.1908L77.4707 9.01196H79.093L80.4478 13.2603C80.5482 13.5613 80.6374 13.8735 80.7154 14.1969C80.7935 14.5091 80.8715 14.8436 80.9496 15.2004C80.9942 14.9551 81.0444 14.721 81.1001 14.498C81.167 14.2638 81.2339 14.0464 81.3008 13.8457C81.3677 13.6338 81.4291 13.4387 81.4848 13.2603L82.8563 9.01196H84.462L85.8168 13.2603C85.8614 13.3606 85.9004 13.4944 85.9338 13.6617C85.9784 13.8178 86.0286 13.985 86.0844 14.1635C86.1401 14.3419 86.1903 14.5203 86.2349 14.6987C86.2795 14.8771 86.3185 15.0443 86.352 15.2004C86.3966 14.9774 86.4412 14.7656 86.4858 14.5649C86.5415 14.353 86.5973 14.1467 86.653 13.946C86.7199 13.7342 86.7924 13.5056 86.8705 13.2603L88.242 9.01196H89.8811L87.0879 17.1908H85.5993L84.1776 12.8087C84.0438 12.3961 83.9323 12.0337 83.8431 11.7215C83.7651 11.3982 83.7037 11.125 83.6591 10.902C83.6145 11.1027 83.5476 11.3535 83.4584 11.6546C83.3804 11.9445 83.2689 12.3348 83.1239 12.8254L81.7022 17.1908H80.1468ZM92.801 17.1908H91.2288V9.01196H92.6505L92.8177 10.2664C93.0742 9.79807 93.4422 9.43568 93.9216 9.17922C94.4122 8.91161 94.9475 8.7778 95.5273 8.7778C96.5977 8.7778 97.3894 9.08444 97.9023 9.69771C98.4152 10.311 98.6717 11.1417 98.6717 12.1898V17.1908H97.0995V12.5411C97.0995 11.7159 96.9211 11.125 96.5643 10.7682C96.2075 10.4002 95.728 10.2162 95.1259 10.2162C94.3899 10.2162 93.8157 10.4559 93.4031 10.9354C93.0017 11.4149 92.801 12.056 92.801 12.8589V17.1908ZM102.455 17.1908H100.883V4.88073H102.455V17.1908ZM104.234 13.093C104.234 12.2567 104.418 11.5152 104.786 10.8685C105.154 10.2218 105.656 9.71444 106.291 9.34647C106.938 8.97851 107.674 8.79453 108.499 8.79453C109.324 8.79453 110.055 8.97851 110.69 9.34647C111.326 9.71444 111.828 10.2218 112.196 10.8685C112.564 11.5152 112.748 12.2567 112.748 13.093C112.748 13.9293 112.564 14.6708 112.196 15.3175C111.828 15.9642 111.326 16.4716 110.69 16.8396C110.055 17.2075 109.324 17.3915 108.499 17.3915C107.674 17.3915 106.938 17.2075 106.291 16.8396C105.656 16.4716 105.154 15.9642 104.786 15.3175C104.418 14.6708 104.234 13.9293 104.234 13.093ZM105.823 13.093C105.823 13.6617 105.935 14.1635 106.158 14.5983C106.392 15.0332 106.71 15.3733 107.111 15.6186C107.512 15.8639 107.975 15.9866 108.499 15.9866C109.023 15.9866 109.486 15.8639 109.887 15.6186C110.289 15.3733 110.601 15.0332 110.824 14.5983C111.058 14.1635 111.175 13.6617 111.175 13.093C111.175 12.5132 111.058 12.0114 110.824 11.5877C110.601 11.1528 110.289 10.8128 109.887 10.5674C109.486 10.3221 109.023 10.1995 108.499 10.1995C107.975 10.1995 107.512 10.3221 107.111 10.5674C106.71 10.8128 106.392 11.1528 106.158 11.5877C105.935 12.0114 105.823 12.5132 105.823 13.093ZM116.88 17.3915C116.01 17.3915 115.324 17.1629 114.822 16.7058C114.332 16.2486 114.086 15.652 114.086 14.9161C114.086 14.169 114.354 13.5725 114.889 13.1265C115.425 12.6693 116.172 12.4017 117.131 12.3236L119.706 12.1229V11.8888C119.706 11.4316 119.623 11.0692 119.455 10.8016C119.288 10.5228 119.06 10.3277 118.77 10.2162C118.48 10.0936 118.151 10.0322 117.783 10.0322C117.125 10.0322 116.612 10.1716 116.244 10.4504C115.887 10.718 115.709 11.1027 115.709 11.6044H114.337C114.337 11.0358 114.482 10.5396 114.772 10.1159C115.062 9.69214 115.469 9.3632 115.993 9.12904C116.528 8.89488 117.147 8.7778 117.85 8.7778C118.53 8.7778 119.121 8.90046 119.623 9.14577C120.136 9.37992 120.531 9.74231 120.81 10.2329C121.1 10.7124 121.245 11.3201 121.245 12.056V17.1908H119.907L119.74 15.8695C119.528 16.3378 119.16 16.7113 118.636 16.9901C118.123 17.2577 117.538 17.3915 116.88 17.3915ZM117.331 16.1705C118.078 16.1705 118.664 15.9475 119.087 15.5015C119.511 15.0443 119.723 14.4311 119.723 13.6617V13.2268L117.632 13.3941C116.941 13.461 116.439 13.6227 116.127 13.8791C115.826 14.1356 115.675 14.4645 115.675 14.8659C115.675 15.3008 115.82 15.6297 116.11 15.8527C116.411 16.0646 116.818 16.1705 117.331 16.1705ZM126.701 17.3915C125.909 17.3915 125.229 17.2131 124.66 16.8563C124.091 16.4883 123.651 15.981 123.339 15.3343C123.038 14.6875 122.887 13.9516 122.887 13.1265C122.887 12.2902 123.043 11.5487 123.355 10.902C123.668 10.2441 124.114 9.72559 124.694 9.34647C125.273 8.96736 125.965 8.7778 126.768 8.7778C127.403 8.7778 127.966 8.91161 128.457 9.17922C128.959 9.43568 129.349 9.82037 129.628 10.3333V4.88073H131.183V17.1908H129.778L129.644 15.7022C129.377 16.2486 128.981 16.6667 128.457 16.9566C127.944 17.2465 127.358 17.3915 126.701 17.3915ZM127.018 15.9698C127.554 15.9698 128.011 15.8472 128.39 15.6019C128.78 15.3566 129.081 15.0165 129.293 14.5816C129.505 14.1467 129.611 13.645 129.611 13.0763C129.611 12.5076 129.505 12.0114 129.293 11.5877C129.081 11.1528 128.78 10.8128 128.39 10.5674C128.011 10.3221 127.554 10.1995 127.018 10.1995C126.483 10.1995 126.026 10.3277 125.647 10.5842C125.268 10.8295 124.978 11.1696 124.777 11.6044C124.576 12.0282 124.476 12.5188 124.476 13.0763C124.476 13.645 124.576 14.1467 124.777 14.5816C124.978 15.0165 125.268 15.3566 125.647 15.6019C126.026 15.8472 126.483 15.9698 127.018 15.9698ZM138.794 17.1908H137.088L141.504 5.09816H143.327L147.759 17.1908H146.036L144.949 14.1802H139.864L138.794 17.1908ZM142.206 7.70736L140.366 12.7585H144.464L142.607 7.70736C142.574 7.58471 142.535 7.46205 142.49 7.3394C142.446 7.20559 142.418 7.09409 142.407 7.00488C142.384 7.09409 142.357 7.20559 142.323 7.3394C142.29 7.46205 142.251 7.58471 142.206 7.70736ZM149.099 20.8537V9.01196H150.521L150.638 10.4838C150.905 9.91514 151.301 9.49143 151.825 9.21267C152.36 8.92276 152.951 8.7778 153.598 8.7778C154.379 8.7778 155.053 8.96178 155.622 9.32975C156.191 9.68656 156.625 10.1883 156.926 10.8351C157.239 11.4706 157.395 12.2066 157.395 13.0428C157.395 13.8791 157.244 14.6262 156.943 15.2841C156.653 15.9419 156.224 16.4604 155.655 16.8396C155.098 17.2187 154.412 17.4082 153.598 17.4082C152.94 17.4082 152.355 17.2744 151.842 17.0068C151.329 16.7392 150.939 16.3545 150.671 15.8527V20.8537H149.099ZM150.688 13.1097C150.688 13.6561 150.788 14.1523 150.989 14.5983C151.201 15.0332 151.496 15.3733 151.875 15.6186C152.266 15.8639 152.728 15.9866 153.264 15.9866C153.799 15.9866 154.256 15.8639 154.635 15.6186C155.014 15.3621 155.304 15.0165 155.505 14.5816C155.717 14.1467 155.823 13.6561 155.823 13.1097C155.823 12.5411 155.717 12.0393 155.505 11.6044C155.304 11.1696 155.014 10.8295 154.635 10.5842C154.256 10.3389 153.799 10.2162 153.264 10.2162C152.728 10.2162 152.266 10.3389 151.875 10.5842C151.496 10.8295 151.201 11.1696 150.989 11.6044C150.788 12.0393 150.688 12.5411 150.688 13.1097ZM159.128 20.8537V9.01196H160.549L160.666 10.4838C160.934 9.91514 161.33 9.49143 161.854 9.21267C162.389 8.92276 162.98 8.7778 163.627 8.7778C164.407 8.7778 165.082 8.96178 165.651 9.32975C166.219 9.68656 166.654 10.1883 166.955 10.8351C167.267 11.4706 167.424 12.2066 167.424 13.0428C167.424 13.8791 167.273 14.6262 166.972 15.2841C166.682 15.9419 166.253 16.4604 165.684 16.8396C165.127 17.2187 164.441 17.4082 163.627 17.4082C162.969 17.4082 162.384 17.2744 161.871 17.0068C161.358 16.7392 160.968 16.3545 160.7 15.8527V20.8537H159.128ZM160.717 13.1097C160.717 13.6561 160.817 14.1523 161.018 14.5983C161.23 15.0332 161.525 15.3733 161.904 15.6186C162.294 15.8639 162.757 15.9866 163.292 15.9866C163.828 15.9866 164.285 15.8639 164.664 15.6186C165.043 15.3621 165.333 15.0165 165.534 14.5816C165.745 14.1467 165.851 13.6561 165.851 13.1097C165.851 12.5411 165.745 12.0393 165.534 11.6044C165.333 11.1696 165.043 10.8295 164.664 10.5842C164.285 10.3389 163.828 10.2162 163.292 10.2162C162.757 10.2162 162.294 10.3389 161.904 10.5842C161.525 10.8295 161.23 11.1696 161.018 11.6044C160.817 12.0393 160.717 12.5411 160.717 13.1097ZM173.195 13.093C173.195 12.2567 173.379 11.5152 173.747 10.8685C174.115 10.2218 174.616 9.71444 175.252 9.34647C175.899 8.97851 176.635 8.79453 177.46 8.79453C178.285 8.79453 179.015 8.97851 179.651 9.34647C180.286 9.71444 180.788 10.2218 181.156 10.8685C181.524 11.5152 181.708 12.2567 181.708 13.093C181.708 13.9293 181.524 14.6708 181.156 15.3175C180.788 15.9642 180.286 16.4716 179.651 16.8396C179.015 17.2075 178.285 17.3915 177.46 17.3915C176.635 17.3915 175.899 17.2075 175.252 16.8396C174.616 16.4716 174.115 15.9642 173.747 15.3175C173.379 14.6708 173.195 13.9293 173.195 13.093ZM174.784 13.093C174.784 13.6617 174.895 14.1635 175.118 14.5983C175.352 15.0332 175.67 15.3733 176.072 15.6186C176.473 15.8639 176.936 15.9866 177.46 15.9866C177.984 15.9866 178.447 15.8639 178.848 15.6186C179.249 15.3733 179.562 15.0332 179.785 14.5983C180.019 14.1635 180.136 13.6617 180.136 13.093C180.136 12.5132 180.019 12.0114 179.785 11.5877C179.562 11.1528 179.249 10.8128 178.848 10.5674C178.447 10.3221 177.984 10.1995 177.46 10.1995C176.936 10.1995 176.473 10.3221 176.072 10.5674C175.67 10.8128 175.352 11.1528 175.118 11.5877C174.895 12.0114 174.784 12.5132 174.784 13.093ZM185.021 17.1908H183.448V9.01196H184.87L185.037 10.2664C185.294 9.79807 185.662 9.43568 186.141 9.17922C186.632 8.91161 187.167 8.7778 187.747 8.7778C188.817 8.7778 189.609 9.08444 190.122 9.69771C190.635 10.311 190.891 11.1417 190.891 12.1898V17.1908H189.319V12.5411C189.319 11.7159 189.141 11.125 188.784 10.7682C188.427 10.4002 187.948 10.2162 187.346 10.2162C186.61 10.2162 186.035 10.4559 185.623 10.9354C185.221 11.4149 185.021 12.056 185.021 12.8589V17.1908Z" fill="white"/>
<path d="M60.0929 47.1908H56.0549L62.3628 29.5094H66.1381L72.4221 47.1908H68.3124L67.0699 43.4634H61.3593L60.0929 47.1908ZM63.7487 36.4386L62.4823 40.2138H65.9708L64.7044 36.4386C64.6089 36.1359 64.5133 35.8253 64.4177 35.5067C64.3221 35.1882 64.2584 34.9253 64.2266 34.7183C64.1947 34.9253 64.131 35.1882 64.0354 35.5067C63.9558 35.8094 63.8602 36.12 63.7487 36.4386ZM74.026 52.9253V35.2439H77.4906L77.6817 36.7014C78.0162 36.1439 78.5339 35.6979 79.2348 35.3634C79.9357 35.0289 80.7083 34.8616 81.5525 34.8616C82.6676 34.8616 83.6472 35.1085 84.4915 35.6023C85.3357 36.0961 85.9968 36.805 86.4746 37.7289C86.9525 38.6368 87.1914 39.7359 87.1914 41.0262C87.1914 42.2846 86.9684 43.4076 86.5224 44.3952C86.0923 45.3669 85.4552 46.1315 84.6109 46.689C83.7826 47.2465 82.7711 47.5253 81.5764 47.5253C80.7481 47.5253 79.9835 47.3819 79.2826 47.0952C78.5817 46.8085 78.0561 46.4421 77.7056 45.9961V52.9253H74.026ZM77.7295 41.2174C77.7295 41.8067 77.849 42.3324 78.0879 42.7943C78.3428 43.2404 78.6853 43.5908 79.1154 43.8457C79.5614 44.0846 80.0711 44.2041 80.6446 44.2041C81.2339 44.2041 81.7357 44.0766 82.1499 43.8218C82.5799 43.5669 82.9065 43.2165 83.1295 42.7705C83.3684 42.3244 83.4879 41.8067 83.4879 41.2174C83.4879 40.628 83.3684 40.1103 83.1295 39.6643C82.9065 39.2182 82.5799 38.8678 82.1499 38.6129C81.7357 38.3581 81.2339 38.2306 80.6446 38.2306C80.0711 38.2306 79.5614 38.3581 79.1154 38.6129C78.6853 38.8519 78.3428 39.1944 78.0879 39.6404C77.849 40.0864 77.7295 40.612 77.7295 41.2174ZM89.3096 52.9253V35.2439H92.7742L92.9653 36.7014C93.2998 36.1439 93.8175 35.6979 94.5184 35.3634C95.2193 35.0289 95.9919 34.8616 96.8361 34.8616C97.9512 34.8616 98.9308 35.1085 99.7751 35.6023C100.619 36.0961 101.28 36.805 101.758 37.7289C102.236 38.6368 102.475 39.7359 102.475 41.0262C102.475 42.2846 102.252 43.4076 101.806 44.3952C101.376 45.3669 100.739 46.1315 99.8945 46.689C99.0662 47.2465 98.0547 47.5253 96.86 47.5253C96.0317 47.5253 95.2671 47.3819 94.5662 47.0952C93.8653 46.8085 93.3397 46.4421 92.9892 45.9961V52.9253H89.3096ZM93.0131 41.2174C93.0131 41.8067 93.1326 42.3324 93.3715 42.7943C93.6264 43.2404 93.9689 43.5908 94.399 43.8457C94.845 44.0846 95.3547 44.2041 95.9282 44.2041C96.5175 44.2041 97.0193 44.0766 97.4335 43.8218C97.8636 43.5669 98.1901 43.2165 98.4131 42.7705C98.6521 42.3244 98.7715 41.8067 98.7715 41.2174C98.7715 40.628 98.6521 40.1103 98.4131 39.6643C98.1901 39.2182 97.8636 38.8678 97.4335 38.6129C97.0193 38.3581 96.5175 38.2306 95.9282 38.2306C95.3547 38.2306 94.845 38.3581 94.399 38.6129C93.9689 38.8519 93.6264 39.1944 93.3715 39.6404C93.1326 40.0864 93.0131 40.612 93.0131 41.2174ZM110.391 34.6466C110.391 33.5793 110.67 32.6395 111.227 31.8271C111.785 30.9988 112.549 30.3537 113.521 29.8917C114.509 29.4138 115.632 29.1749 116.89 29.1749C118.164 29.1749 119.264 29.3979 120.187 29.8439C121.111 30.2899 121.82 30.9191 122.314 31.7315C122.824 32.5439 123.079 33.5076 123.079 34.6227H119.232C119.232 34.0014 119.017 33.5156 118.587 33.1652C118.156 32.7988 117.575 32.6156 116.842 32.6156C116.062 32.6156 115.433 32.7829 114.955 33.1174C114.493 33.4519 114.262 33.9138 114.262 34.5032C114.262 35.0448 114.405 35.459 114.692 35.7457C114.979 36.0324 115.433 36.2395 116.054 36.3669L118.706 36.9165C120.283 37.2351 121.454 37.7926 122.218 38.589C122.983 39.3696 123.365 40.4607 123.365 41.8625C123.365 42.9935 123.087 43.989 122.529 44.8492C121.971 45.6935 121.183 46.3465 120.164 46.8085C119.16 47.2704 117.981 47.5014 116.627 47.5014C115.321 47.5014 114.174 47.2784 113.187 46.8324C112.215 46.3864 111.458 45.7572 110.917 44.9448C110.391 44.1165 110.128 43.1528 110.128 42.0536H113.975C113.975 42.6908 114.206 43.1846 114.668 43.5351C115.13 43.8855 115.791 44.0607 116.651 44.0607C117.527 44.0607 118.22 43.9014 118.73 43.5828C119.24 43.2483 119.495 42.8023 119.495 42.2448C119.495 41.751 119.367 41.3687 119.112 41.0979C118.873 40.8271 118.459 40.6359 117.87 40.5244L115.17 39.9749C113.593 39.6563 112.398 39.051 111.586 38.159C110.789 37.2669 110.391 36.0961 110.391 34.6466ZM124.354 35.2439H132.573V38.3023H124.354V35.2439ZM130.303 47.1908H126.624V31.5404H130.303V47.1908ZM133.465 41.1935C133.465 39.9351 133.744 38.8359 134.302 37.8961C134.875 36.9404 135.656 36.1997 136.643 35.674C137.647 35.1483 138.786 34.8855 140.06 34.8855C141.334 34.8855 142.465 35.1483 143.453 35.674C144.44 36.1997 145.213 36.9404 145.771 37.8961C146.344 38.8359 146.631 39.9351 146.631 41.1935C146.631 42.4519 146.344 43.551 145.771 44.4908C145.213 45.4306 144.44 46.1634 143.453 46.689C142.465 47.2147 141.334 47.4775 140.06 47.4775C138.786 47.4775 137.647 47.2147 136.643 46.689C135.656 46.1634 134.875 45.4306 134.302 44.4908C133.744 43.551 133.465 42.4519 133.465 41.1935ZM137.169 41.1696C137.169 41.7749 137.288 42.3085 137.527 42.7705C137.782 43.2165 138.125 43.5669 138.555 43.8218C138.985 44.0607 139.486 44.1802 140.06 44.1802C140.633 44.1802 141.135 44.0607 141.565 43.8218C141.995 43.5669 142.33 43.2165 142.569 42.7705C142.808 42.3085 142.927 41.7749 142.927 41.1696C142.927 40.5643 142.808 40.0386 142.569 39.5926C142.33 39.1466 141.995 38.8041 141.565 38.5651C141.135 38.3103 140.633 38.1828 140.06 38.1828C139.486 38.1828 138.985 38.3103 138.555 38.5651C138.125 38.8041 137.782 39.1466 137.527 39.5926C137.288 40.0386 137.169 40.5643 137.169 41.1696ZM156.983 35.2439V38.7085H155.813C154.761 38.7085 153.933 38.9634 153.328 39.4731C152.738 39.9828 152.444 40.8271 152.444 42.0058V47.1908H148.764V35.2678H152.229L152.515 37.8244H152.181C152.34 37.028 152.698 36.3749 153.256 35.8652C153.829 35.3395 154.602 35.0767 155.574 35.0767C155.797 35.0767 156.02 35.0926 156.243 35.1244C156.482 35.1404 156.729 35.1802 156.983 35.2439ZM164.038 47.5014C162.843 47.5014 161.776 47.2306 160.836 46.689C159.912 46.1474 159.179 45.4067 158.638 44.4669C158.112 43.5112 157.849 42.42 157.849 41.1935C157.849 39.951 158.104 38.8598 158.614 37.92C159.139 36.9643 159.864 36.2156 160.788 35.674C161.712 35.1324 162.771 34.8616 163.966 34.8616C165.224 34.8616 166.307 35.1244 167.215 35.6501C168.123 36.1598 168.824 36.8926 169.318 37.8483C169.812 38.7882 170.059 39.9112 170.059 41.2174V42.1492L159.784 42.197L159.832 39.9271H166.403C166.403 39.2899 166.188 38.7882 165.758 38.4218C165.328 38.0395 164.738 37.8483 163.99 37.8483C163.368 37.8483 162.859 37.9678 162.461 38.2067C162.078 38.4457 161.791 38.82 161.6 39.3297C161.409 39.8236 161.314 40.4607 161.314 41.2412C161.314 42.3563 161.537 43.1846 161.983 43.7262C162.445 44.2519 163.153 44.5147 164.109 44.5147C164.81 44.5147 165.391 44.3952 165.853 44.1563C166.315 43.9174 166.61 43.5828 166.738 43.1527H170.107C169.899 44.4749 169.246 45.5342 168.147 46.3306C167.048 47.1112 165.678 47.5014 164.038 47.5014Z" fill="white"/>
</svg>
