<svg width="283" height="39" viewBox="0 0 283 39" fill="none" xmlns="http://www.w3.org/2000/svg">
<path d="M26.4857 20.3886C26.5047 18.9191 26.8961 17.4783 27.6236 16.2001C28.351 14.922 29.3909 13.8482 30.6464 13.0785C29.8488 11.9426 28.7966 11.0078 27.5734 10.3484C26.3502 9.68892 24.9896 9.32298 23.5997 9.27962C20.6349 8.96929 17.7607 11.0487 16.2499 11.0487C14.7099 11.0487 12.3837 9.31043 9.87889 9.36182C8.25869 9.41402 6.67967 9.88385 5.29569 10.7255C3.91171 11.5672 2.76997 12.752 1.9817 14.1645C-1.43288 20.0598 1.11409 28.7239 4.38498 33.4892C6.02147 35.8226 7.93406 38.4291 10.4367 38.3367C12.8856 38.2354 13.8002 36.7794 16.7563 36.7794C19.6849 36.7794 20.543 38.3367 23.0964 38.2779C25.7242 38.2354 27.3799 35.9341 28.9589 33.5786C30.1348 31.9159 31.0395 30.0783 31.6398 28.1339C30.1131 27.49 28.8103 26.4122 27.8937 25.0348C26.9772 23.6575 26.4875 22.0416 26.4857 20.3886Z" fill="white"/>
<path d="M21.663 6.14563C23.0958 4.43043 23.8017 2.22582 23.6307 0C21.4418 0.229268 19.4197 1.27254 17.9676 2.92193C17.2576 3.7277 16.7138 4.66512 16.3673 5.68059C16.0208 6.69605 15.8785 7.76966 15.9483 8.84004C17.0432 8.85128 18.1264 8.61463 19.1163 8.14792C20.1061 7.6812 20.9769 6.99658 21.663 6.14563Z" fill="white"/>
<path d="M53.8078 27.1696H49.9838V15.6016H53.7438C54.8958 15.6016 55.9038 15.8469 56.7678 16.3376C57.6424 16.8176 58.3198 17.4949 58.7998 18.3696C59.2904 19.2336 59.5358 20.2416 59.5358 21.3936C59.5358 22.5349 59.2958 23.5429 58.8158 24.4176C58.3358 25.2816 57.6638 25.9589 56.7998 26.4496C55.9464 26.9296 54.9491 27.1696 53.8078 27.1696ZM51.5518 16.3376V26.4496L50.8158 25.7136H53.6958C54.5598 25.7136 55.3011 25.5376 55.9198 25.1856C56.5491 24.8336 57.0344 24.3376 57.3758 23.6976C57.7278 23.0469 57.9038 22.2789 57.9038 21.3936C57.9038 20.4976 57.7278 19.7242 57.3758 19.0736C57.0344 18.4229 56.5438 17.9216 55.9038 17.5696C55.2744 17.2176 54.5171 17.0416 53.6318 17.0416H50.8158L51.5518 16.3376ZM60.7626 23.2496C60.7626 22.4496 60.9386 21.7402 61.2906 21.1216C61.6426 20.5029 62.1226 20.0176 62.7306 19.6656C63.3493 19.3136 64.0533 19.1376 64.8426 19.1376C65.632 19.1376 66.3306 19.3136 66.9386 19.6656C67.5466 20.0176 68.0266 20.5029 68.3786 21.1216C68.7306 21.7402 68.9066 22.4496 68.9066 23.2496C68.9066 24.0496 68.7306 24.7589 68.3786 25.3776C68.0266 25.9962 67.5466 26.4816 66.9386 26.8336C66.3306 27.1856 65.632 27.3616 64.8426 27.3616C64.0533 27.3616 63.3493 27.1856 62.7306 26.8336C62.1226 26.4816 61.6426 25.9962 61.2906 25.3776C60.9386 24.7589 60.7626 24.0496 60.7626 23.2496ZM62.2826 23.2496C62.2826 23.7936 62.3893 24.2736 62.6026 24.6896C62.8266 25.1056 63.1306 25.4309 63.5146 25.6656C63.8986 25.9002 64.3413 26.0176 64.8426 26.0176C65.344 26.0176 65.7866 25.9002 66.1706 25.6656C66.5546 25.4309 66.8533 25.1056 67.0666 24.6896C67.2906 24.2736 67.4026 23.7936 67.4026 23.2496C67.4026 22.6949 67.2906 22.2149 67.0666 21.8096C66.8533 21.3936 66.5546 21.0682 66.1706 20.8336C65.7866 20.5989 65.344 20.4816 64.8426 20.4816C64.3413 20.4816 63.8986 20.5989 63.5146 20.8336C63.1306 21.0682 62.8266 21.3936 62.6026 21.8096C62.3893 22.2149 62.2826 22.6949 62.2826 23.2496ZM71.8921 27.1696L69.3321 19.3456H70.8841L72.1801 23.4096C72.2761 23.6976 72.3615 23.9962 72.4361 24.3056C72.5108 24.6042 72.5855 24.9242 72.6601 25.2656C72.7028 25.0309 72.7508 24.8069 72.8041 24.5936C72.8681 24.3696 72.9321 24.1616 72.9961 23.9696C73.0601 23.7669 73.1188 23.5802 73.1721 23.4096L74.4841 19.3456H76.0201L77.3161 23.4096C77.3588 23.5056 77.3961 23.6336 77.4281 23.7936C77.4708 23.9429 77.5188 24.1029 77.5721 24.2736C77.6255 24.4442 77.6735 24.6149 77.7161 24.7856C77.7588 24.9562 77.7961 25.1162 77.8281 25.2656C77.8708 25.0522 77.9135 24.8496 77.9561 24.6576C78.0095 24.4549 78.0628 24.2576 78.1161 24.0656C78.1801 23.8629 78.2495 23.6442 78.3241 23.4096L79.6361 19.3456H81.2041L78.5321 27.1696H77.1081L75.7481 22.9776C75.6201 22.5829 75.5135 22.2362 75.4281 21.9376C75.3535 21.6282 75.2948 21.3669 75.2521 21.1536C75.2095 21.3456 75.1455 21.5856 75.0601 21.8736C74.9855 22.1509 74.8788 22.5242 74.7401 22.9936L73.3801 27.1696H71.8921ZM83.9974 27.1696H82.4934V19.3456H83.8534L84.0134 20.5456C84.2587 20.0976 84.6107 19.7509 85.0694 19.5056C85.5387 19.2496 86.0507 19.1216 86.6054 19.1216C87.6294 19.1216 88.3867 19.4149 88.8774 20.0016C89.3681 20.5882 89.6134 21.3829 89.6134 22.3856V27.1696H88.1094V22.7216C88.1094 21.9322 87.9387 21.3669 87.5974 21.0256C87.2561 20.6736 86.7974 20.4976 86.2214 20.4976C85.5174 20.4976 84.9681 20.7269 84.5734 21.1856C84.1894 21.6442 83.9974 22.2576 83.9974 23.0256V27.1696ZM93.2325 27.1696H91.7285V15.3936H93.2325V27.1696ZM94.9345 23.2496C94.9345 22.4496 95.1105 21.7402 95.4625 21.1216C95.8145 20.5029 96.2945 20.0176 96.9025 19.6656C97.5212 19.3136 98.2252 19.1376 99.0145 19.1376C99.8039 19.1376 100.503 19.3136 101.111 19.6656C101.719 20.0176 102.199 20.5029 102.551 21.1216C102.903 21.7402 103.079 22.4496 103.079 23.2496C103.079 24.0496 102.903 24.7589 102.551 25.3776C102.199 25.9962 101.719 26.4816 101.111 26.8336C100.503 27.1856 99.8039 27.3616 99.0145 27.3616C98.2252 27.3616 97.5212 27.1856 96.9025 26.8336C96.2945 26.4816 95.8145 25.9962 95.4625 25.3776C95.1105 24.7589 94.9345 24.0496 94.9345 23.2496ZM96.4545 23.2496C96.4545 23.7936 96.5612 24.2736 96.7745 24.6896C96.9985 25.1056 97.3025 25.4309 97.6865 25.6656C98.0705 25.9002 98.5132 26.0176 99.0145 26.0176C99.5159 26.0176 99.9585 25.9002 100.343 25.6656C100.727 25.4309 101.025 25.1056 101.239 24.6896C101.463 24.2736 101.575 23.7936 101.575 23.2496C101.575 22.6949 101.463 22.2149 101.239 21.8096C101.025 21.3936 100.727 21.0682 100.343 20.8336C99.9585 20.5989 99.5159 20.4816 99.0145 20.4816C98.5132 20.4816 98.0705 20.5989 97.6865 20.8336C97.3025 21.0682 96.9985 21.3936 96.7745 21.8096C96.5612 22.2149 96.4545 22.6949 96.4545 23.2496ZM107.031 27.3616C106.199 27.3616 105.543 27.1429 105.063 26.7056C104.594 26.2682 104.359 25.6976 104.359 24.9936C104.359 24.2789 104.615 23.7082 105.127 23.2816C105.639 22.8442 106.354 22.5882 107.271 22.5136L109.735 22.3216V22.0976C109.735 21.6602 109.655 21.3136 109.495 21.0576C109.335 20.7909 109.117 20.6042 108.839 20.4976C108.562 20.3802 108.247 20.3216 107.895 20.3216C107.266 20.3216 106.775 20.4549 106.423 20.7216C106.082 20.9776 105.911 21.3456 105.911 21.8256H104.599C104.599 21.2816 104.738 20.8069 105.015 20.4016C105.293 19.9962 105.682 19.6816 106.183 19.4576C106.695 19.2336 107.287 19.1216 107.959 19.1216C108.61 19.1216 109.175 19.2389 109.655 19.4736C110.146 19.6976 110.525 20.0442 110.791 20.5136C111.069 20.9722 111.207 21.5536 111.207 22.2576V27.1696H109.927L109.767 25.9056C109.565 26.3536 109.213 26.7109 108.711 26.9776C108.221 27.2336 107.661 27.3616 107.031 27.3616ZM107.463 26.1936C108.178 26.1936 108.738 25.9802 109.143 25.5536C109.549 25.1162 109.751 24.5296 109.751 23.7936V23.3776L107.751 23.5376C107.09 23.6016 106.61 23.7562 106.311 24.0016C106.023 24.2469 105.879 24.5616 105.879 24.9456C105.879 25.3616 106.018 25.6762 106.295 25.8896C106.583 26.0922 106.973 26.1936 107.463 26.1936ZM116.426 27.3616C115.669 27.3616 115.018 27.1909 114.474 26.8496C113.93 26.4976 113.509 26.0122 113.21 25.3936C112.922 24.7749 112.778 24.0709 112.778 23.2816C112.778 22.4816 112.928 21.7722 113.226 21.1536C113.525 20.5242 113.952 20.0282 114.506 19.6656C115.061 19.3029 115.722 19.1216 116.49 19.1216C117.098 19.1216 117.637 19.2496 118.106 19.5056C118.586 19.7509 118.96 20.1189 119.226 20.6096V15.3936H120.714V27.1696H119.37L119.242 25.7456C118.986 26.2682 118.608 26.6682 118.106 26.9456C117.616 27.2229 117.056 27.3616 116.426 27.3616ZM116.73 26.0016C117.242 26.0016 117.68 25.8842 118.042 25.6496C118.416 25.4149 118.704 25.0896 118.906 24.6736C119.109 24.2576 119.21 23.7776 119.21 23.2336C119.21 22.6896 119.109 22.2149 118.906 21.8096C118.704 21.3936 118.416 21.0682 118.042 20.8336C117.68 20.5989 117.242 20.4816 116.73 20.4816C116.218 20.4816 115.781 20.6042 115.418 20.8496C115.056 21.0842 114.778 21.4096 114.586 21.8256C114.394 22.2309 114.298 22.7002 114.298 23.2336C114.298 23.7776 114.394 24.2576 114.586 24.6736C114.778 25.0896 115.056 25.4149 115.418 25.6496C115.781 25.8842 116.218 26.0016 116.73 26.0016ZM127.995 27.1696H126.363L130.587 15.6016H132.331L136.571 27.1696H134.923L133.883 24.2896H129.019L127.995 27.1696ZM131.259 18.0976L129.499 22.9296H133.419L131.643 18.0976C131.611 17.9802 131.574 17.8629 131.531 17.7456C131.488 17.6176 131.462 17.5109 131.451 17.4256C131.43 17.5109 131.403 17.6176 131.371 17.7456C131.339 17.8629 131.302 17.9802 131.259 18.0976ZM137.853 30.6736V19.3456H139.213L139.325 20.7536C139.581 20.2096 139.959 19.8042 140.461 19.5376C140.973 19.2602 141.538 19.1216 142.157 19.1216C142.903 19.1216 143.549 19.2976 144.093 19.6496C144.637 19.9909 145.053 20.4709 145.341 21.0896C145.639 21.6976 145.789 22.4016 145.789 23.2016C145.789 24.0016 145.645 24.7162 145.357 25.3456C145.079 25.9749 144.669 26.4709 144.125 26.8336C143.591 27.1962 142.935 27.3776 142.157 27.3776C141.527 27.3776 140.967 27.2496 140.477 26.9936C139.986 26.7376 139.613 26.3696 139.357 25.8896V30.6736H137.853ZM139.373 23.2656C139.373 23.7882 139.469 24.2629 139.661 24.6896C139.863 25.1056 140.146 25.4309 140.509 25.6656C140.882 25.9002 141.325 26.0176 141.837 26.0176C142.349 26.0176 142.786 25.9002 143.149 25.6656C143.511 25.4202 143.789 25.0896 143.981 24.6736C144.183 24.2576 144.285 23.7882 144.285 23.2656C144.285 22.7216 144.183 22.2416 143.981 21.8256C143.789 21.4096 143.511 21.0842 143.149 20.8496C142.786 20.6149 142.349 20.4976 141.837 20.4976C141.325 20.4976 140.882 20.6149 140.509 20.8496C140.146 21.0842 139.863 21.4096 139.661 21.8256C139.469 22.2416 139.373 22.7216 139.373 23.2656ZM147.447 30.6736V19.3456H148.807L148.919 20.7536C149.175 20.2096 149.553 19.8042 150.055 19.5376C150.567 19.2602 151.132 19.1216 151.751 19.1216C152.497 19.1216 153.143 19.2976 153.687 19.6496C154.231 19.9909 154.647 20.4709 154.935 21.0896C155.233 21.6976 155.383 22.4016 155.383 23.2016C155.383 24.0016 155.239 24.7162 154.951 25.3456C154.673 25.9749 154.263 26.4709 153.719 26.8336C153.185 27.1962 152.529 27.3776 151.751 27.3776C151.121 27.3776 150.561 27.2496 150.071 26.9936C149.58 26.7376 149.207 26.3696 148.951 25.8896V30.6736H147.447ZM148.967 23.2656C148.967 23.7882 149.063 24.2629 149.255 24.6896C149.457 25.1056 149.74 25.4309 150.103 25.6656C150.476 25.9002 150.919 26.0176 151.431 26.0176C151.943 26.0176 152.38 25.9002 152.743 25.6656C153.105 25.4202 153.383 25.0896 153.575 24.6736C153.777 24.2576 153.879 23.7882 153.879 23.2656C153.879 22.7216 153.777 22.2416 153.575 21.8256C153.383 21.4096 153.105 21.0842 152.743 20.8496C152.38 20.6149 151.943 20.4976 151.431 20.4976C150.919 20.4976 150.476 20.6149 150.103 20.8496C149.74 21.0842 149.457 21.4096 149.255 21.8256C149.063 22.2416 148.967 22.7216 148.967 23.2656ZM160.903 23.2496C160.903 22.4496 161.079 21.7402 161.431 21.1216C161.783 20.5029 162.263 20.0176 162.871 19.6656C163.49 19.3136 164.194 19.1376 164.983 19.1376C165.773 19.1376 166.471 19.3136 167.079 19.6656C167.687 20.0176 168.167 20.5029 168.519 21.1216C168.871 21.7402 169.047 22.4496 169.047 23.2496C169.047 24.0496 168.871 24.7589 168.519 25.3776C168.167 25.9962 167.687 26.4816 167.079 26.8336C166.471 27.1856 165.773 27.3616 164.983 27.3616C164.194 27.3616 163.49 27.1856 162.871 26.8336C162.263 26.4816 161.783 25.9962 161.431 25.3776C161.079 24.7589 160.903 24.0496 160.903 23.2496ZM162.423 23.2496C162.423 23.7936 162.53 24.2736 162.743 24.6896C162.967 25.1056 163.271 25.4309 163.655 25.6656C164.039 25.9002 164.482 26.0176 164.983 26.0176C165.485 26.0176 165.927 25.9002 166.311 25.6656C166.695 25.4309 166.994 25.1056 167.207 24.6896C167.431 24.2736 167.543 23.7936 167.543 23.2496C167.543 22.6949 167.431 22.2149 167.207 21.8096C166.994 21.3936 166.695 21.0682 166.311 20.8336C165.927 20.5989 165.485 20.4816 164.983 20.4816C164.482 20.4816 164.039 20.5989 163.655 20.8336C163.271 21.0682 162.967 21.3936 162.743 21.8096C162.53 22.2149 162.423 22.6949 162.423 23.2496ZM172.216 27.1696H170.712V19.3456H172.072L172.232 20.5456C172.477 20.0976 172.829 19.7509 173.288 19.5056C173.757 19.2496 174.269 19.1216 174.824 19.1216C175.848 19.1216 176.605 19.4149 177.096 20.0016C177.587 20.5882 177.832 21.3829 177.832 22.3856V27.1696H176.328V22.7216C176.328 21.9322 176.157 21.3669 175.816 21.0256C175.475 20.6736 175.016 20.4976 174.44 20.4976C173.736 20.4976 173.187 20.7269 172.792 21.1856C172.408 21.6442 172.216 22.2576 172.216 23.0256V27.1696Z" fill="white"/>
<path d="M189.2 26.6696H185.82L191.1 11.8696H194.26L199.52 26.6696H196.08L195.04 23.5496H190.26L189.2 26.6696ZM192.26 17.6696L191.2 20.8296H194.12L193.06 17.6696C192.98 17.4162 192.9 17.1562 192.82 16.8896C192.74 16.6229 192.686 16.4029 192.66 16.2296C192.633 16.4029 192.58 16.6229 192.5 16.8896C192.433 17.1429 192.353 17.4029 192.26 17.6696ZM200.862 31.4696V16.6696H203.762L203.922 17.8896C204.202 17.4229 204.636 17.0496 205.222 16.7696C205.809 16.4896 206.456 16.3496 207.162 16.3496C208.096 16.3496 208.916 16.5562 209.622 16.9696C210.329 17.3829 210.882 17.9762 211.282 18.7496C211.682 19.5096 211.882 20.4296 211.882 21.5096C211.882 22.5629 211.696 23.5029 211.322 24.3296C210.962 25.1429 210.429 25.7829 209.722 26.2496C209.029 26.7162 208.182 26.9496 207.182 26.9496C206.489 26.9496 205.849 26.8296 205.262 26.5896C204.676 26.3496 204.236 26.0429 203.942 25.6696V31.4696H200.862ZM203.962 21.6696C203.962 22.1629 204.062 22.6029 204.262 22.9896C204.476 23.3629 204.762 23.6562 205.122 23.8696C205.496 24.0696 205.922 24.1696 206.402 24.1696C206.896 24.1696 207.316 24.0629 207.662 23.8496C208.022 23.6362 208.296 23.3429 208.482 22.9696C208.682 22.5962 208.782 22.1629 208.782 21.6696C208.782 21.1762 208.682 20.7429 208.482 20.3696C208.296 19.9962 208.022 19.7029 207.662 19.4896C207.316 19.2762 206.896 19.1696 206.402 19.1696C205.922 19.1696 205.496 19.2762 205.122 19.4896C204.762 19.6896 204.476 19.9762 204.262 20.3496C204.062 20.7229 203.962 21.1629 203.962 21.6696ZM213.655 31.4696V16.6696H216.555L216.715 17.8896C216.995 17.4229 217.429 17.0496 218.015 16.7696C218.602 16.4896 219.249 16.3496 219.955 16.3496C220.889 16.3496 221.709 16.5562 222.415 16.9696C223.122 17.3829 223.675 17.9762 224.075 18.7496C224.475 19.5096 224.675 20.4296 224.675 21.5096C224.675 22.5629 224.489 23.5029 224.115 24.3296C223.755 25.1429 223.222 25.7829 222.515 26.2496C221.822 26.7162 220.975 26.9496 219.975 26.9496C219.282 26.9496 218.642 26.8296 218.055 26.5896C217.469 26.3496 217.029 26.0429 216.735 25.6696V31.4696H213.655ZM216.755 21.6696C216.755 22.1629 216.855 22.6029 217.055 22.9896C217.269 23.3629 217.555 23.6562 217.915 23.8696C218.289 24.0696 218.715 24.1696 219.195 24.1696C219.689 24.1696 220.109 24.0629 220.455 23.8496C220.815 23.6362 221.089 23.3429 221.275 22.9696C221.475 22.5962 221.575 22.1629 221.575 21.6696C221.575 21.1762 221.475 20.7429 221.275 20.3696C221.089 19.9962 220.815 19.7029 220.455 19.4896C220.109 19.2762 219.689 19.1696 219.195 19.1696C218.715 19.1696 218.289 19.2762 217.915 19.4896C217.555 19.6896 217.269 19.9762 217.055 20.3496C216.855 20.7229 216.755 21.1629 216.755 21.6696ZM231.301 16.1696C231.301 15.2762 231.535 14.4896 232.001 13.8096C232.468 13.1162 233.108 12.5762 233.921 12.1896C234.748 11.7896 235.688 11.5896 236.741 11.5896C237.808 11.5896 238.728 11.7762 239.501 12.1496C240.275 12.5229 240.868 13.0496 241.281 13.7296C241.708 14.4096 241.921 15.2162 241.921 16.1496H238.701C238.701 15.6296 238.521 15.2229 238.161 14.9296C237.801 14.6229 237.315 14.4696 236.701 14.4696C236.048 14.4696 235.521 14.6096 235.121 14.8896C234.735 15.1696 234.541 15.5562 234.541 16.0496C234.541 16.5029 234.661 16.8496 234.901 17.0896C235.141 17.3296 235.521 17.5029 236.041 17.6096L238.261 18.0696C239.581 18.3362 240.561 18.8029 241.201 19.4696C241.841 20.1229 242.161 21.0362 242.161 22.2096C242.161 23.1562 241.928 23.9896 241.461 24.7096C240.995 25.4162 240.335 25.9629 239.481 26.3496C238.641 26.7362 237.655 26.9296 236.521 26.9296C235.428 26.9296 234.468 26.7429 233.641 26.3696C232.828 25.9962 232.195 25.4696 231.741 24.7896C231.301 24.0962 231.081 23.2896 231.081 22.3696H234.301C234.301 22.9029 234.495 23.3162 234.881 23.6096C235.268 23.9029 235.821 24.0496 236.541 24.0496C237.275 24.0496 237.855 23.9162 238.281 23.6496C238.708 23.3696 238.921 22.9962 238.921 22.5296C238.921 22.1162 238.815 21.7962 238.601 21.5696C238.401 21.3429 238.055 21.1829 237.561 21.0896L235.301 20.6296C233.981 20.3629 232.981 19.8562 232.301 19.1096C231.635 18.3629 231.301 17.3829 231.301 16.1696ZM242.989 16.6696H249.869V19.2296H242.989V16.6696ZM247.969 26.6696H244.889V13.5696H247.969V26.6696ZM250.615 21.6496C250.615 20.5962 250.849 19.6762 251.315 18.8896C251.795 18.0896 252.449 17.4696 253.275 17.0296C254.115 16.5896 255.069 16.3696 256.135 16.3696C257.202 16.3696 258.149 16.5896 258.975 17.0296C259.802 17.4696 260.449 18.0896 260.915 18.8896C261.395 19.6762 261.635 20.5962 261.635 21.6496C261.635 22.7029 261.395 23.6229 260.915 24.4096C260.449 25.1962 259.802 25.8096 258.975 26.2496C258.149 26.6896 257.202 26.9096 256.135 26.9096C255.069 26.9096 254.115 26.6896 253.275 26.2496C252.449 25.8096 251.795 25.1962 251.315 24.4096C250.849 23.6229 250.615 22.7029 250.615 21.6496ZM253.715 21.6296C253.715 22.1362 253.815 22.5829 254.015 22.9696C254.229 23.3429 254.515 23.6362 254.875 23.8496C255.235 24.0496 255.655 24.1496 256.135 24.1496C256.615 24.1496 257.035 24.0496 257.395 23.8496C257.755 23.6362 258.035 23.3429 258.235 22.9696C258.435 22.5829 258.535 22.1362 258.535 21.6296C258.535 21.1229 258.435 20.6829 258.235 20.3096C258.035 19.9362 257.755 19.6496 257.395 19.4496C257.035 19.2362 256.615 19.1296 256.135 19.1296C255.655 19.1296 255.235 19.2362 254.875 19.4496C254.515 19.6496 254.229 19.9362 254.015 20.3096C253.815 20.6829 253.715 21.1229 253.715 21.6296ZM270.301 16.6696V19.5696H269.321C268.441 19.5696 267.748 19.7829 267.241 20.2096C266.748 20.6362 266.501 21.3429 266.501 22.3296V26.6696H263.421V16.6896H266.321L266.561 18.8296H266.281C266.414 18.1629 266.714 17.6162 267.181 17.1896C267.661 16.7496 268.308 16.5296 269.121 16.5296C269.308 16.5296 269.494 16.5429 269.681 16.5696C269.881 16.5829 270.088 16.6162 270.301 16.6696ZM276.205 26.9296C275.205 26.9296 274.312 26.7029 273.525 26.2496C272.752 25.7962 272.139 25.1762 271.685 24.3896C271.245 23.5896 271.025 22.6762 271.025 21.6496C271.025 20.6096 271.239 19.6962 271.665 18.9096C272.105 18.1096 272.712 17.4829 273.485 17.0296C274.259 16.5762 275.145 16.3496 276.145 16.3496C277.199 16.3496 278.105 16.5696 278.865 17.0096C279.625 17.4362 280.212 18.0496 280.625 18.8496C281.039 19.6362 281.245 20.5762 281.245 21.6696V22.4496L272.645 22.4896L272.685 20.5896H278.185C278.185 20.0562 278.005 19.6362 277.645 19.3296C277.285 19.0096 276.792 18.8496 276.165 18.8496C275.645 18.8496 275.219 18.9496 274.885 19.1496C274.565 19.3496 274.325 19.6629 274.165 20.0896C274.005 20.5029 273.925 21.0362 273.925 21.6896C273.925 22.6229 274.112 23.3162 274.485 23.7696C274.872 24.2096 275.465 24.4296 276.265 24.4296C276.852 24.4296 277.339 24.3296 277.725 24.1296C278.112 23.9296 278.359 23.6496 278.465 23.2896H281.285C281.112 24.3962 280.565 25.2829 279.645 25.9496C278.725 26.6029 277.579 26.9296 276.205 26.9296Z" fill="white"/>
</svg>
