<svg width="51" height="52" viewBox="0 0 51 52" fill="none" xmlns="http://www.w3.org/2000/svg">
<path d="M21.0112 22.0122C19.5577 22.0122 18.4102 23.2872 18.4102 24.8427C18.4102 26.3982 19.5832 27.6732 21.0112 27.6732C22.4647 27.6732 23.6122 26.3982 23.6122 24.8427C23.6377 23.2872 22.4647 22.0122 21.0112 22.0122ZM30.3187 22.0122C28.8652 22.0122 27.7177 23.2872 27.7177 24.8427C27.7177 26.3982 28.8907 27.6732 30.3187 27.6732C31.7722 27.6732 32.9197 26.3982 32.9197 24.8427C32.9197 23.2872 31.7722 22.0122 30.3187 22.0122Z" fill="white"/>
<path d="M42.712 0.61792H8.54195C5.66045 0.61792 3.31445 2.96392 3.31445 5.87092V40.3469C3.31445 43.2539 5.66045 45.5999 8.54195 45.5999H37.459L36.1075 40.8824L39.3715 43.9169L42.457 46.7729L47.9395 51.6179V5.87092C47.9395 2.96392 45.5935 0.61792 42.712 0.61792ZM32.869 33.9209C32.869 33.9209 31.951 32.8244 31.186 31.8554C34.5265 30.9119 35.8015 28.8209 35.8015 28.8209C34.756 29.5094 33.7615 29.9939 32.869 30.3254C31.594 30.8609 30.37 31.2179 29.1715 31.4219C26.7235 31.8809 24.4795 31.7534 22.567 31.3964C21.1135 31.1159 19.864 30.7079 18.8185 30.2999C18.232 30.0704 17.5945 29.7899 16.957 29.4329C16.8805 29.3819 16.804 29.3564 16.7275 29.3054C16.6765 29.2799 16.651 29.2544 16.6255 29.2289C16.1665 28.9739 15.9115 28.7954 15.9115 28.7954C15.9115 28.7954 17.1355 30.8354 20.374 31.8044C19.609 32.7734 18.6655 33.9209 18.6655 33.9209C13.03 33.7424 10.888 30.0449 10.888 30.0449C10.888 21.8339 14.56 15.1784 14.56 15.1784C18.232 12.4244 21.7255 12.5009 21.7255 12.5009L21.9805 12.8069C17.3905 14.1329 15.274 16.1474 15.274 16.1474C15.274 16.1474 15.835 15.8414 16.7785 15.4079C19.507 14.2094 21.6745 13.8779 22.567 13.8014C22.72 13.7759 22.8475 13.7504 23.0005 13.7504C24.556 13.5464 26.3155 13.4954 28.1515 13.6994C30.574 13.9799 33.175 14.6939 35.827 16.1474C35.827 16.1474 33.8125 14.2349 29.4775 12.9089L29.8345 12.5009C29.8345 12.5009 33.328 12.4244 37 15.1784C37 15.1784 40.672 21.8339 40.672 30.0449C40.672 30.0449 38.5045 33.7424 32.869 33.9209Z" fill="white"/>
</svg>
