<svg width="51" height="52" viewBox="0 0 51 52" fill="none" xmlns="http://www.w3.org/2000/svg">
<g clip-path="url(#clip0_308_4526)">
<path d="M51 26.1179C51 12.0346 39.5833 0.61792 25.5 0.61792C11.4167 0.61792 0 12.0346 0 26.1179C0 38.8455 9.32493 49.3951 21.5156 51.3081V33.489H15.041V26.1179H21.5156V20.5C21.5156 14.109 25.3227 10.5789 31.1474 10.5789C33.9364 10.5789 36.8555 11.0769 36.8555 11.0769V17.3523H33.6401C30.4725 17.3523 29.4844 19.3181 29.4844 21.3367V26.1179H36.5566L35.4261 33.489H29.4844V51.3081C41.6751 49.3951 51 38.8455 51 26.1179Z" fill="white"/>
</g>
<defs>
<clipPath id="clip0_308_4526">
<rect width="51" height="51" fill="white" transform="translate(0 0.61792)"/>
</clipPath>
</defs>
</svg>
