<svg width="13" height="18" viewBox="0 0 13 18" fill="none" xmlns="http://www.w3.org/2000/svg">
<path d="M12.9638 10.4293C12.7696 7.90005 11.592 6.31507 10.5531 4.91641C9.59112 3.62156 8.76029 2.50339 8.76029 0.853919C8.76029 0.721426 8.6861 0.600328 8.56845 0.539613C8.45043 0.478534 8.30863 0.488537 8.20134 0.566509C6.64111 1.68296 5.3393 3.56465 4.88455 5.36006C4.56885 6.61003 4.52709 8.01525 4.52122 8.94333C3.08037 8.63558 2.75397 6.48032 2.75052 6.45684C2.73429 6.34505 2.66599 6.24776 2.56663 6.19463C2.46623 6.1422 2.34821 6.13839 2.24642 6.18877C2.17087 6.22534 0.391857 7.12927 0.288347 10.7384C0.281093 10.8585 0.280762 10.9789 0.280762 11.0993C0.280762 14.6056 3.13383 17.4585 6.64041 17.4585C6.64525 17.4589 6.65041 17.4596 6.65455 17.4585C6.65595 17.4585 6.6573 17.4585 6.65903 17.4585C10.157 17.4485 13.0001 14.5994 13.0001 11.0993C13.0001 10.923 12.9638 10.4293 12.9638 10.4293ZM6.64041 16.7519C5.47143 16.7519 4.52053 15.739 4.52053 14.4939C4.52053 14.4514 4.5202 14.4087 4.52328 14.3562C4.53742 13.8311 4.63715 13.4727 4.74653 13.2342C4.95149 13.6745 5.3179 14.0792 5.91309 14.0792C6.10839 14.0792 6.26642 13.9211 6.26642 13.7259C6.26642 13.2229 6.27678 12.6426 6.40202 12.1188C6.51348 11.6544 6.77983 11.1604 7.11729 10.7643C7.26737 11.2784 7.55998 11.6944 7.84566 12.1005C8.25454 12.6815 8.67719 13.2822 8.75138 14.3065C8.75585 14.3672 8.76036 14.4283 8.76036 14.4939C8.76029 15.739 7.80939 16.7519 6.64041 16.7519Z" fill="#A1CCFE"/>
</svg>
