<svg width="13" height="18" viewBox="0 0 13 18" fill="none" xmlns="http://www.w3.org/2000/svg">
<path d="M12.9638 10.4293C12.7695 7.90005 11.5919 6.31507 10.553 4.91641C9.59106 3.62156 8.76023 2.50339 8.76023 0.853919C8.76023 0.721426 8.68604 0.600328 8.56838 0.539613C8.45037 0.478534 8.30857 0.488537 8.20128 0.566509C6.64105 1.68296 5.33924 3.56465 4.88449 5.36006C4.56879 6.61003 4.52703 8.01525 4.52116 8.94333C3.0803 8.63558 2.75391 6.48032 2.75046 6.45684C2.73423 6.34505 2.66593 6.24776 2.56656 6.19463C2.46617 6.1422 2.34815 6.13839 2.24636 6.18877C2.17081 6.22534 0.391796 7.12927 0.288286 10.7384C0.281032 10.8585 0.280701 10.9789 0.280701 11.0993C0.280701 14.6056 3.13377 17.4585 6.64035 17.4585C6.64519 17.4589 6.65035 17.4596 6.65449 17.4585C6.65588 17.4585 6.65724 17.4585 6.65897 17.4585C10.1569 17.4485 13 14.5994 13 11.0993C13 10.923 12.9638 10.4293 12.9638 10.4293ZM6.64035 16.7519C5.47137 16.7519 4.52047 15.739 4.52047 14.4939C4.52047 14.4514 4.52014 14.4087 4.52322 14.3562C4.53736 13.8311 4.63709 13.4727 4.74647 13.2342C4.95143 13.6745 5.31784 14.0792 5.91303 14.0792C6.10833 14.0792 6.26636 13.9211 6.26636 13.7259C6.26636 13.2229 6.27672 12.6426 6.40196 12.1188C6.51342 11.6544 6.77977 11.1604 7.11722 10.7643C7.26731 11.2784 7.55992 11.6944 7.8456 12.1005C8.25448 12.6815 8.67713 13.2822 8.75132 14.3065C8.75579 14.3672 8.7603 14.4283 8.7603 14.4939C8.76023 15.739 7.80933 16.7519 6.64035 16.7519Z" fill="#FEA1A1"/>
</svg>
