<svg width="2683" height="2479" viewBox="0 0 2683 2479" fill="none" xmlns="http://www.w3.org/2000/svg">
<g opacity="0.3" filter="url(#filter0_f_319_9129)">
<g style="mix-blend-mode:screen" opacity="0.4" filter="url(#filter1_f_319_9129)">
<ellipse cx="221.699" cy="217.773" rx="221.699" ry="217.773" transform="matrix(0.953677 -0.300832 -0.348045 -0.937478 1113.48 1510.54)" fill="#FF00D6"/>
</g>
<g style="mix-blend-mode:screen" filter="url(#filter2_f_319_9129)">
<ellipse cx="290.329" cy="285.187" rx="290.329" ry="285.187" transform="matrix(0.953677 -0.300832 -0.348045 -0.937478 1102.52 1583.42)" fill="#FF4DAD"/>
</g>
<g style="mix-blend-mode:screen" filter="url(#filter3_f_319_9129)">
<ellipse cx="271.668" cy="266.857" rx="271.668" ry="266.857" transform="matrix(0.953677 -0.300832 -0.348045 -0.937478 1490.02 1494.3)" fill="#FF0202"/>
</g>
<g style="mix-blend-mode:screen" filter="url(#filter4_f_319_9129)">
<ellipse cx="387.793" cy="380.925" rx="387.793" ry="380.925" transform="matrix(0.953677 -0.300832 -0.348045 -0.937478 1240.22 1626.54)" fill="#FF00D6"/>
</g>
<path d="M1298.98 1828.81H1286.57V1737.28H1321.14C1330.93 1737.28 1338.57 1739.72 1344.05 1744.62C1349.62 1749.43 1352.41 1756.14 1352.41 1764.75C1352.41 1771.08 1350.85 1776.44 1347.72 1780.83C1344.68 1785.22 1340.34 1788.34 1334.68 1790.2L1353.29 1828.81H1339.49L1322.4 1792.6H1298.98V1828.81ZM1298.98 1748.42V1781.59H1321.26C1327 1781.59 1331.43 1780.11 1334.56 1777.16C1337.76 1774.2 1339.37 1770.11 1339.37 1764.88C1339.37 1759.56 1337.72 1755.51 1334.43 1752.72C1331.22 1749.85 1326.79 1748.42 1321.14 1748.42H1298.98ZM1389.65 1830.33C1383.66 1830.33 1378.34 1828.98 1373.7 1826.28C1369.05 1823.5 1365.42 1819.7 1362.81 1814.89C1360.19 1809.99 1358.88 1804.34 1358.88 1797.92C1358.88 1791.42 1360.15 1785.73 1362.68 1780.83C1365.3 1775.93 1368.84 1772.09 1373.32 1769.31C1377.87 1766.52 1383.15 1765.13 1389.14 1765.13C1395.05 1765.13 1400.16 1766.4 1404.46 1768.93C1408.85 1771.46 1412.23 1775.01 1414.59 1779.56C1417.04 1784.12 1418.26 1789.48 1418.26 1795.64V1800.07L1365.21 1800.2L1365.47 1792.22H1406.36C1406.36 1787.08 1404.8 1782.94 1401.68 1779.82C1398.55 1776.69 1394.38 1775.13 1389.14 1775.13C1385.18 1775.13 1381.76 1776.02 1378.89 1777.79C1376.1 1779.48 1373.95 1782.01 1372.43 1785.39C1370.99 1788.68 1370.28 1792.65 1370.28 1797.29C1370.28 1804.72 1371.97 1810.46 1375.34 1814.51C1378.72 1818.48 1383.57 1820.46 1389.9 1820.46C1394.54 1820.46 1398.34 1819.53 1401.3 1817.67C1404.25 1815.82 1406.23 1813.12 1407.25 1809.57H1418.39C1416.87 1816.15 1413.62 1821.26 1408.64 1824.89C1403.66 1828.52 1397.33 1830.33 1389.65 1830.33ZM1426.49 1810.84H1437.89C1437.89 1813.96 1439.03 1816.45 1441.3 1818.31C1443.58 1820.08 1446.66 1820.97 1450.55 1820.97C1454.77 1820.97 1458.02 1820.16 1460.3 1818.56C1462.57 1816.87 1463.71 1814.63 1463.71 1811.85C1463.71 1809.82 1463.08 1808.14 1461.82 1806.78C1460.63 1805.43 1458.44 1804.34 1455.23 1803.49L1444.34 1800.96C1438.86 1799.61 1434.76 1797.54 1432.06 1794.76C1429.45 1791.97 1428.14 1788.3 1428.14 1783.74C1428.14 1779.94 1429.11 1776.65 1431.05 1773.87C1433.07 1771.08 1435.82 1768.93 1439.28 1767.41C1442.82 1765.89 1446.88 1765.13 1451.43 1765.13C1455.99 1765.13 1459.92 1765.93 1463.21 1767.54C1466.58 1769.14 1469.2 1771.38 1471.06 1774.25C1473 1777.12 1474.01 1780.53 1474.1 1784.5H1462.7C1462.62 1781.29 1461.56 1778.8 1459.54 1777.03C1457.51 1775.26 1454.68 1774.37 1451.05 1774.37C1447.34 1774.37 1444.47 1775.17 1442.44 1776.78C1440.42 1778.38 1439.41 1780.58 1439.41 1783.36C1439.41 1787.5 1442.44 1790.33 1448.52 1791.84L1459.41 1794.5C1464.64 1795.69 1468.57 1797.63 1471.18 1800.33C1473.8 1802.94 1475.11 1806.53 1475.11 1811.09C1475.11 1814.97 1474.05 1818.39 1471.94 1821.34C1469.83 1824.21 1466.92 1826.45 1463.21 1828.06C1459.58 1829.57 1455.27 1830.33 1450.29 1830.33C1443.03 1830.33 1437.25 1828.56 1432.95 1825.02C1428.64 1821.47 1426.49 1816.74 1426.49 1810.84ZM1531.1 1766.9H1542.88V1828.81H1532.24L1530.97 1819.45C1529.2 1822.65 1526.42 1825.27 1522.62 1827.3C1518.82 1829.32 1514.64 1830.33 1510.08 1830.33C1502.91 1830.33 1497.34 1828.1 1493.37 1823.62C1489.49 1819.07 1487.55 1812.99 1487.55 1805.39V1766.9H1499.45V1801.47C1499.45 1808.05 1500.76 1812.78 1503.37 1815.65C1506.07 1818.43 1509.7 1819.83 1514.26 1819.83C1519.75 1819.83 1523.93 1818.14 1526.8 1814.76C1529.67 1811.3 1531.1 1806.24 1531.1 1799.57V1766.9ZM1572.3 1828.81H1560.4V1735.63H1572.3V1828.81ZM1583.23 1766.9H1619.44V1776.91H1583.23V1766.9ZM1607.29 1828.81H1595.39V1747.53H1607.29V1828.81ZM1094.2 1995.54V1905.9H1104.96L1105.85 1917.04C1107.87 1912.74 1110.87 1909.53 1114.84 1907.42C1118.89 1905.23 1123.36 1904.13 1128.26 1904.13C1134.16 1904.13 1139.27 1905.52 1143.58 1908.31C1147.88 1911.01 1151.17 1914.81 1153.45 1919.7C1155.81 1924.51 1157 1930.09 1157 1936.42C1157 1942.75 1155.86 1948.4 1153.58 1953.38C1151.38 1958.36 1148.13 1962.29 1143.83 1965.16C1139.61 1968.03 1134.42 1969.46 1128.26 1969.46C1123.28 1969.46 1118.84 1968.45 1114.96 1966.42C1111.08 1964.4 1108.12 1961.48 1106.1 1957.69V1995.54H1094.2ZM1106.23 1936.92C1106.23 1941.06 1106.99 1944.81 1108.5 1948.19C1110.11 1951.48 1112.35 1954.06 1115.22 1955.91C1118.17 1957.77 1121.67 1958.7 1125.72 1958.7C1129.78 1958.7 1133.24 1957.77 1136.11 1955.91C1138.98 1953.97 1141.17 1951.36 1142.69 1948.06C1144.29 1944.77 1145.09 1941.06 1145.09 1936.92C1145.09 1932.62 1144.29 1928.82 1142.69 1925.53C1141.17 1922.24 1138.98 1919.66 1136.11 1917.8C1133.24 1915.95 1129.78 1915.02 1125.72 1915.02C1121.67 1915.02 1118.17 1915.95 1115.22 1917.8C1112.35 1919.66 1110.11 1922.24 1108.5 1925.53C1106.99 1928.82 1106.23 1932.62 1106.23 1936.92ZM1205.56 1905.4V1916.28H1200.25C1194.59 1916.28 1190.12 1917.93 1186.83 1921.22C1183.62 1924.43 1182.02 1929.03 1182.02 1935.02V1967.81H1170.11V1906.03H1181.26L1182.27 1918.44H1181.13C1181.97 1914.39 1184 1911.09 1187.21 1908.56C1190.41 1905.95 1194.42 1904.64 1199.23 1904.64C1200.33 1904.64 1201.34 1904.72 1202.27 1904.89C1203.29 1904.97 1204.38 1905.14 1205.56 1905.4ZM1210.45 1936.8C1210.45 1930.47 1211.84 1924.85 1214.63 1919.96C1217.41 1915.06 1221.21 1911.22 1226.02 1908.44C1230.92 1905.65 1236.49 1904.26 1242.74 1904.26C1248.98 1904.26 1254.51 1905.65 1259.32 1908.44C1264.13 1911.22 1267.93 1915.06 1270.72 1919.96C1273.5 1924.85 1274.89 1930.47 1274.89 1936.8C1274.89 1943.13 1273.5 1948.74 1270.72 1953.63C1267.93 1958.53 1264.13 1962.37 1259.32 1965.16C1254.51 1967.94 1248.98 1969.33 1242.74 1969.33C1236.49 1969.33 1230.92 1967.94 1226.02 1965.16C1221.21 1962.37 1217.41 1958.53 1214.63 1953.63C1211.84 1948.74 1210.45 1943.13 1210.45 1936.8ZM1222.48 1936.8C1222.48 1941.1 1223.32 1944.9 1225.01 1948.19C1226.78 1951.48 1229.19 1954.06 1232.23 1955.91C1235.27 1957.77 1238.77 1958.7 1242.74 1958.7C1246.7 1958.7 1250.21 1957.77 1253.24 1955.91C1256.28 1954.06 1258.65 1951.48 1260.33 1948.19C1262.11 1944.9 1262.99 1941.1 1262.99 1936.8C1262.99 1932.41 1262.11 1928.61 1260.33 1925.4C1258.65 1922.11 1256.28 1919.53 1253.24 1917.68C1250.21 1915.82 1246.7 1914.89 1242.74 1914.89C1238.77 1914.89 1235.27 1915.82 1232.23 1917.68C1229.19 1919.53 1226.78 1922.11 1225.01 1925.4C1223.32 1928.61 1222.48 1932.41 1222.48 1936.8ZM1284.02 1936.92C1284.02 1930.42 1285.28 1924.73 1287.82 1919.83C1290.43 1914.93 1294.02 1911.09 1298.58 1908.31C1303.14 1905.52 1308.41 1904.13 1314.4 1904.13C1322.17 1904.13 1328.63 1906.2 1333.77 1910.33C1338.92 1914.47 1342 1919.96 1343.02 1926.79H1331.12C1330.1 1922.83 1328.12 1919.83 1325.17 1917.8C1322.21 1915.78 1318.75 1914.77 1314.78 1914.77C1311.07 1914.77 1307.78 1915.69 1304.91 1917.55C1302.04 1919.32 1299.8 1921.86 1298.2 1925.15C1296.59 1928.44 1295.79 1932.32 1295.79 1936.8C1295.79 1941.27 1296.55 1945.15 1298.07 1948.44C1299.59 1951.65 1301.74 1954.18 1304.53 1956.04C1307.31 1957.81 1310.56 1958.7 1314.28 1958.7C1318.5 1958.7 1322.13 1957.64 1325.17 1955.53C1328.2 1953.42 1330.23 1950.55 1331.24 1946.92H1343.14C1342.38 1951.4 1340.65 1955.32 1337.95 1958.7C1335.34 1961.99 1331.96 1964.61 1327.82 1966.55C1323.77 1968.41 1319.26 1969.33 1314.28 1969.33C1308.2 1969.33 1302.88 1967.98 1298.32 1965.28C1293.85 1962.58 1290.35 1958.83 1287.82 1954.01C1285.28 1949.12 1284.02 1943.42 1284.02 1936.92ZM1382.42 1969.33C1376.42 1969.33 1371.11 1967.98 1366.46 1965.28C1361.82 1962.5 1358.19 1958.7 1355.57 1953.89C1352.96 1948.99 1351.65 1943.34 1351.65 1936.92C1351.65 1930.42 1352.92 1924.73 1355.45 1919.83C1358.06 1914.93 1361.61 1911.09 1366.08 1908.31C1370.64 1905.52 1375.92 1904.13 1381.91 1904.13C1387.82 1904.13 1392.92 1905.4 1397.23 1907.93C1401.62 1910.46 1404.99 1914.01 1407.36 1918.56C1409.81 1923.12 1411.03 1928.48 1411.03 1934.64V1939.07L1357.98 1939.2L1358.23 1931.22H1399.13C1399.13 1926.08 1397.57 1921.94 1394.44 1918.82C1391.32 1915.69 1387.14 1914.13 1381.91 1914.13C1377.94 1914.13 1374.52 1915.02 1371.65 1916.79C1368.87 1918.48 1366.72 1921.01 1365.2 1924.39C1363.76 1927.68 1363.04 1931.65 1363.04 1936.29C1363.04 1943.72 1364.73 1949.46 1368.11 1953.51C1371.48 1957.48 1376.34 1959.46 1382.67 1959.46C1387.31 1959.46 1391.11 1958.53 1394.06 1956.67C1397.02 1954.82 1399 1952.12 1400.01 1948.57H1411.16C1409.64 1955.15 1406.39 1960.26 1401.41 1963.89C1396.43 1967.52 1390.1 1969.33 1382.42 1969.33ZM1419.26 1949.84H1430.65C1430.65 1952.96 1431.79 1955.45 1434.07 1957.31C1436.35 1959.08 1439.43 1959.97 1443.31 1959.97C1447.53 1959.97 1450.78 1959.16 1453.06 1957.56C1455.34 1955.87 1456.48 1953.63 1456.48 1950.85C1456.48 1948.82 1455.85 1947.14 1454.58 1945.78C1453.4 1944.43 1451.21 1943.34 1448 1942.49L1437.11 1939.96C1431.62 1938.61 1427.53 1936.54 1424.83 1933.76C1422.21 1930.97 1420.9 1927.3 1420.9 1922.74C1420.9 1918.94 1421.87 1915.65 1423.82 1912.87C1425.84 1910.08 1428.58 1907.93 1432.05 1906.41C1435.59 1904.89 1439.64 1904.13 1444.2 1904.13C1448.76 1904.13 1452.68 1904.93 1455.97 1906.54C1459.35 1908.14 1461.97 1910.38 1463.82 1913.25C1465.77 1916.12 1466.78 1919.53 1466.86 1923.5H1455.47C1455.38 1920.29 1454.33 1917.8 1452.3 1916.03C1450.28 1914.26 1447.45 1913.37 1443.82 1913.37C1440.11 1913.37 1437.24 1914.17 1435.21 1915.78C1433.19 1917.38 1432.17 1919.58 1432.17 1922.36C1432.17 1926.5 1435.21 1929.33 1441.29 1930.84L1452.18 1933.5C1457.41 1934.69 1461.33 1936.63 1463.95 1939.33C1466.57 1941.94 1467.88 1945.53 1467.88 1950.09C1467.88 1953.97 1466.82 1957.39 1464.71 1960.34C1462.6 1963.21 1459.69 1965.45 1455.97 1967.06C1452.35 1968.57 1448.04 1969.33 1443.06 1969.33C1435.8 1969.33 1430.02 1967.56 1425.72 1964.02C1421.41 1960.47 1419.26 1955.74 1419.26 1949.84ZM1476.01 1949.84H1487.4C1487.4 1952.96 1488.54 1955.45 1490.82 1957.31C1493.1 1959.08 1496.18 1959.97 1500.07 1959.97C1504.29 1959.97 1507.54 1959.16 1509.81 1957.56C1512.09 1955.87 1513.23 1953.63 1513.23 1950.85C1513.23 1948.82 1512.6 1947.14 1511.33 1945.78C1510.15 1944.43 1507.96 1943.34 1504.75 1942.49L1493.86 1939.96C1488.38 1938.61 1484.28 1936.54 1481.58 1933.76C1478.96 1930.97 1477.66 1927.3 1477.66 1922.74C1477.66 1918.94 1478.63 1915.65 1480.57 1912.87C1482.59 1910.08 1485.34 1907.93 1488.8 1906.41C1492.34 1904.89 1496.39 1904.13 1500.95 1904.13C1505.51 1904.13 1509.43 1904.93 1512.73 1906.54C1516.1 1908.14 1518.72 1910.38 1520.58 1913.25C1522.52 1916.12 1523.53 1919.53 1523.61 1923.5H1512.22C1512.14 1920.29 1511.08 1917.8 1509.05 1916.03C1507.03 1914.26 1504.2 1913.37 1500.57 1913.37C1496.86 1913.37 1493.99 1914.17 1491.96 1915.78C1489.94 1917.38 1488.92 1919.58 1488.92 1922.36C1488.92 1926.5 1491.96 1929.33 1498.04 1930.84L1508.93 1933.5C1514.16 1934.69 1518.09 1936.63 1520.7 1939.33C1523.32 1941.94 1524.63 1945.53 1524.63 1950.09C1524.63 1953.97 1523.57 1957.39 1521.46 1960.34C1519.35 1963.21 1516.44 1965.45 1512.73 1967.06C1509.1 1968.57 1504.79 1969.33 1499.81 1969.33C1492.55 1969.33 1486.77 1967.56 1482.47 1964.02C1478.16 1960.47 1476.01 1955.74 1476.01 1949.84ZM1537.83 1967.81V1905.9H1549.73V1967.81H1537.83ZM1543.65 1891.22C1541.54 1891.22 1539.68 1890.46 1538.08 1888.94C1536.56 1887.33 1535.8 1885.48 1535.8 1883.37C1535.8 1881.17 1536.56 1879.31 1538.08 1877.8C1539.68 1876.28 1541.54 1875.52 1543.65 1875.52C1545.84 1875.52 1547.7 1876.28 1549.22 1877.8C1550.74 1879.31 1551.5 1881.17 1551.5 1883.37C1551.5 1885.48 1550.74 1887.33 1549.22 1888.94C1547.7 1890.46 1545.84 1891.22 1543.65 1891.22ZM1578.91 1967.81H1567.01V1905.9H1577.77L1579.03 1915.4C1580.97 1911.85 1583.76 1909.11 1587.39 1907.17C1591.1 1905.14 1595.15 1904.13 1599.54 1904.13C1607.65 1904.13 1613.64 1906.45 1617.52 1911.09C1621.41 1915.74 1623.35 1922.02 1623.35 1929.96V1967.81H1611.45V1932.62C1611.45 1926.37 1610.09 1921.9 1607.39 1919.2C1604.69 1916.41 1601.06 1915.02 1596.51 1915.02C1590.93 1915.02 1586.59 1916.83 1583.46 1920.46C1580.43 1924.09 1578.91 1928.95 1578.91 1935.02V1967.81ZM1635.91 1935.28C1635.91 1929.45 1637.09 1924.22 1639.45 1919.58C1641.81 1914.85 1645.19 1911.09 1649.58 1908.31C1653.97 1905.52 1659.16 1904.13 1665.15 1904.13C1670.72 1904.13 1675.49 1905.48 1679.46 1908.18C1683.43 1910.8 1686.25 1914.47 1687.94 1919.2L1686.42 1920.84L1687.69 1905.9H1698.32V1965.28C1698.32 1971.78 1697.06 1977.4 1694.53 1982.12C1691.99 1986.93 1688.41 1990.65 1683.76 1993.26C1679.12 1995.88 1673.64 1997.19 1667.3 1997.19C1658.86 1997.19 1651.94 1994.95 1646.54 1990.48C1641.14 1986 1637.85 1979.84 1636.67 1971.99H1648.57C1649.33 1976.55 1651.35 1980.1 1654.64 1982.63C1657.94 1985.16 1662.16 1986.43 1667.3 1986.43C1673.13 1986.43 1677.77 1984.65 1681.23 1981.11C1684.78 1977.65 1686.55 1972.96 1686.55 1967.06V1949.58L1688.07 1951.23C1686.47 1955.87 1683.55 1959.54 1679.33 1962.24C1675.11 1964.86 1670.22 1966.17 1664.65 1966.17C1658.74 1966.17 1653.63 1964.82 1649.33 1962.12C1645.02 1959.33 1641.69 1955.62 1639.32 1950.98C1637.05 1946.33 1635.91 1941.1 1635.91 1935.28ZM1647.81 1935.02C1647.81 1938.91 1648.57 1942.41 1650.09 1945.53C1651.69 1948.65 1653.88 1951.14 1656.67 1953C1659.54 1954.86 1662.87 1955.79 1666.67 1955.79C1670.72 1955.79 1674.18 1954.9 1677.05 1953.13C1679.92 1951.36 1682.12 1948.91 1683.64 1945.78C1685.24 1942.66 1686.04 1939.07 1686.04 1935.02C1686.04 1930.97 1685.28 1927.43 1683.76 1924.39C1682.24 1921.35 1680.05 1918.94 1677.18 1917.17C1674.31 1915.4 1670.85 1914.51 1666.8 1914.51C1662.83 1914.51 1659.41 1915.44 1656.54 1917.3C1653.76 1919.15 1651.61 1921.64 1650.09 1924.77C1648.57 1927.81 1647.81 1931.22 1647.81 1935.02ZM1724.36 1969.33C1721.91 1969.33 1719.76 1968.49 1717.91 1966.8C1716.13 1965.03 1715.25 1962.92 1715.25 1960.47C1715.25 1957.94 1716.13 1955.83 1717.91 1954.14C1719.76 1952.37 1721.91 1951.48 1724.36 1951.48C1726.81 1951.48 1728.92 1952.37 1730.69 1954.14C1732.47 1955.83 1733.35 1957.94 1733.35 1960.47C1733.35 1962.92 1732.47 1965.03 1730.69 1966.8C1728.92 1968.49 1726.81 1969.33 1724.36 1969.33ZM1759.35 1969.33C1756.91 1969.33 1754.75 1968.49 1752.9 1966.8C1751.12 1965.03 1750.24 1962.92 1750.24 1960.47C1750.24 1957.94 1751.12 1955.83 1752.9 1954.14C1754.75 1952.37 1756.91 1951.48 1759.35 1951.48C1761.8 1951.48 1763.91 1952.37 1765.68 1954.14C1767.46 1955.83 1768.34 1957.94 1768.34 1960.47C1768.34 1962.92 1767.46 1965.03 1765.68 1966.8C1763.91 1968.49 1761.8 1969.33 1759.35 1969.33ZM1794.34 1969.33C1791.9 1969.33 1789.74 1968.49 1787.89 1966.8C1786.11 1965.03 1785.23 1962.92 1785.23 1960.47C1785.23 1957.94 1786.11 1955.83 1787.89 1954.14C1789.74 1952.37 1791.9 1951.48 1794.34 1951.48C1796.79 1951.48 1798.9 1952.37 1800.67 1954.14C1802.45 1955.83 1803.33 1957.94 1803.33 1960.47C1803.33 1962.92 1802.45 1965.03 1800.67 1966.8C1798.9 1968.49 1796.79 1969.33 1794.34 1969.33Z" fill="#1D293B" fill-opacity="0.8"/>
</g>
<defs>
<filter id="filter0_f_319_9129" x="722.154" y="513.217" width="1473.15" height="1747.74" filterUnits="userSpaceOnUse" color-interpolation-filters="sRGB">
<feFlood flood-opacity="0" result="BackgroundImageFix"/>
<feBlend mode="normal" in="SourceGraphic" in2="BackgroundImageFix" result="shape"/>
<feGaussianBlur stdDeviation="131.885" result="effect1_foregroundBlur_319_9129"/>
</filter>
<filter id="filter1_f_319_9129" x="0.18634" y="0.5979" width="2497.86" height="2478.19" filterUnits="userSpaceOnUse" color-interpolation-filters="sRGB">
<feFlood flood-opacity="0" result="BackgroundImageFix"/>
<feBlend mode="normal" in="SourceGraphic" in2="BackgroundImageFix" result="shape"/>
<feGaussianBlur stdDeviation="512.131" result="effect1_foregroundBlur_319_9129"/>
</filter>
<filter id="filter2_f_319_9129" x="353.43" y="314.888" width="1853.42" height="1827.66" filterUnits="userSpaceOnUse" color-interpolation-filters="sRGB">
<feFlood flood-opacity="0" result="BackgroundImageFix"/>
<feBlend mode="normal" in="SourceGraphic" in2="BackgroundImageFix" result="shape"/>
<feGaussianBlur stdDeviation="316.247" result="effect1_foregroundBlur_319_9129"/>
</filter>
<filter id="filter3_f_319_9129" x="629.851" y="148.076" width="2052.75" height="2028.66" filterUnits="userSpaceOnUse" color-interpolation-filters="sRGB">
<feFlood flood-opacity="0" result="BackgroundImageFix"/>
<feBlend mode="normal" in="SourceGraphic" in2="BackgroundImageFix" result="shape"/>
<feGaussianBlur stdDeviation="375.537" result="effect1_foregroundBlur_319_9129"/>
</filter>
<filter id="filter4_f_319_9129" x="736.777" y="429.279" width="1481.38" height="1446.98" filterUnits="userSpaceOnUse" color-interpolation-filters="sRGB">
<feFlood flood-opacity="0" result="BackgroundImageFix"/>
<feBlend mode="normal" in="SourceGraphic" in2="BackgroundImageFix" result="shape"/>
<feGaussianBlur stdDeviation="173.854" result="effect1_foregroundBlur_319_9129"/>
</filter>
</defs>
</svg>
