<svg width="51" height="52" viewBox="0 0 51 52" fill="none" xmlns="http://www.w3.org/2000/svg">
<path d="M25.515 5.21014C32.3322 5.21014 33.1395 5.24002 35.8206 5.35956C38.3123 5.46913 39.6578 5.88751 40.5548 6.23616C41.7409 6.69439 42.598 7.25223 43.4851 8.13879C44.3821 9.03532 44.9302 9.88204 45.3887 11.0675C45.7375 11.964 46.1561 13.3187 46.2658 15.7991C46.3854 18.4887 46.4153 19.2956 46.4153 26.0992C46.4153 32.9129 46.3854 33.7197 46.2658 36.3994C46.1561 38.8897 45.7375 40.2345 45.3887 41.131C44.9302 42.3164 44.3721 43.1731 43.4851 44.0597C42.588 44.9562 41.7409 45.5041 40.5548 45.9623C39.6578 46.311 38.3023 46.7294 35.8206 46.8389C33.1296 46.9585 32.3223 46.9883 25.515 46.9883C18.6977 46.9883 17.8904 46.9585 15.2093 46.8389C12.7176 46.7294 11.3721 46.311 10.4751 45.9623C9.28904 45.5041 8.43189 44.9463 7.54485 44.0597C6.64784 43.1632 6.09967 42.3164 5.6412 41.131C5.29236 40.2345 4.87375 38.8798 4.76412 36.3994C4.64452 33.7098 4.61462 32.9029 4.61462 26.0992C4.61462 19.2856 4.64452 18.4788 4.76412 15.7991C4.87375 13.3088 5.29236 11.964 5.6412 11.0675C6.09967 9.88204 6.65781 9.02536 7.54485 8.13879C8.44186 7.24227 9.28904 6.69439 10.4751 6.23616C11.3721 5.88751 12.7276 5.46913 15.2093 5.35956C17.8904 5.24002 18.6977 5.21014 25.515 5.21014ZM25.515 0.61792C18.588 0.61792 17.7209 0.647804 15 0.767341C12.289 0.886878 10.4252 1.32518 8.81063 1.95275C7.12625 2.6102 5.701 3.47685 4.28571 4.90133C2.86047 6.31585 1.99336 7.74034 1.33555 9.41386C0.707641 11.0376 0.269103 12.8904 0.149502 15.5999C0.0299003 18.3293 0 19.196 0 26.1192C0 33.0424 0.0299003 33.909 0.149502 36.6285C0.269103 39.338 0.707641 41.2008 1.33555 42.8145C1.99336 44.498 2.86047 45.9225 4.28571 47.337C5.701 48.7515 7.12625 49.6281 8.80066 50.2756C10.4252 50.9032 12.2791 51.3415 14.99 51.461C17.711 51.5806 18.5781 51.6104 25.505 51.6104C32.4319 51.6104 33.299 51.5806 36.0199 51.461C38.7309 51.3415 40.5947 50.9032 42.2093 50.2756C43.8837 49.6281 45.309 48.7515 46.7243 47.337C48.1395 45.9225 49.0166 44.498 49.6645 42.8245C50.2924 41.2008 50.7309 39.3479 50.8505 36.6384C50.9701 33.919 51 33.0523 51 26.1291C51 19.2059 50.9701 18.3393 50.8505 15.6198C50.7309 12.9103 50.2924 11.0475 49.6645 9.43378C49.0365 7.74034 48.1694 6.31585 46.7442 4.90133C45.3289 3.48681 43.9037 2.6102 42.2292 1.96271C40.6047 1.33514 38.7508 0.89684 36.0399 0.777303C33.309 0.647804 32.4419 0.61792 25.515 0.61792Z" fill="white"/>
<path d="M25.514 13.02C18.2781 13.02 12.4077 18.8873 12.4077 26.1193C12.4077 33.3513 18.2781 39.2186 25.514 39.2186C32.7499 39.2186 38.6203 33.3513 38.6203 26.1193C38.6203 18.8873 32.7499 13.02 25.514 13.02ZM25.514 34.6164C20.8197 34.6164 17.0124 30.8111 17.0124 26.1193C17.0124 21.4275 20.8197 17.6222 25.514 17.6222C30.2084 17.6222 34.0157 21.4275 34.0157 26.1193C34.0157 30.8111 30.2084 34.6164 25.514 34.6164Z" fill="white"/>
<path d="M42.2002 12.5015C42.2002 14.195 40.8248 15.5597 39.1404 15.5597C37.446 15.5597 36.0806 14.185 36.0806 12.5015C36.0806 10.8081 37.456 9.44336 39.1404 9.44336C40.8248 9.44336 42.2002 10.818 42.2002 12.5015Z" fill="white"/>
</svg>
