<svg width="285" height="85" viewBox="0 0 285 85" fill="none" xmlns="http://www.w3.org/2000/svg">
<path d="M48.0611 80.7516C65.7519 74.8846 74.752 53.334 68.1632 32.6169C61.5745 11.8999 41.892 -0.138519 24.2011 5.72846C6.51024 11.5954 -2.48982 33.1461 4.09892 53.8631C10.6877 74.5802 30.3702 86.6186 48.0611 80.7516Z" fill="#A30234"/>
<path d="M24.1934 5.73343L32.0724 3.13037L31.2613 8.77032L24.6182 9.55912L24.1934 5.73343ZM47.6374 80.9065L57.5248 77.554L51.7314 74.8721L47.6374 80.9065Z" fill="#A30234"/>
<path d="M55.94 78.1425C73.6308 72.2755 82.6309 50.7249 76.0421 30.0078C69.4534 9.29073 49.7709 -2.74765 32.08 3.11933C14.3891 8.98631 5.38908 30.5369 11.9778 51.254C18.5666 71.9711 38.2491 84.0094 55.94 78.1425Z" fill="#FF0048"/>
<path d="M55.5473 71.0772C70.0935 66.2531 77.5005 48.5541 72.0911 31.5454C66.6818 14.5367 50.5045 4.65908 35.9582 9.48319C21.412 14.3073 14.005 32.0063 19.4144 49.015C24.8237 66.0237 41.001 75.9013 55.5473 71.0772Z" fill="white"/>
<path d="M55.038 66.1453C67.3932 62.0478 73.6809 47.0036 69.082 32.5431C64.483 18.0826 50.739 9.68166 38.3838 13.7791C26.0286 17.8766 19.7409 32.9208 24.3398 47.3813C28.9388 61.8418 42.6828 70.2427 55.038 66.1453Z" fill="#FF0048"/>
<path d="M63.7442 44.2663L55.0927 57.5576C52.9299 60.91 48.6427 61.265 45.5529 58.3464L33.2708 46.7904C30.181 43.8719 29.4472 38.7841 31.6101 35.4317L40.2616 22.1403C42.4245 18.7879 46.7116 18.4329 49.8014 21.3515L62.0835 32.9075C65.1733 35.8261 65.9071 40.9139 63.7442 44.2663Z" fill="white"/>
<path d="M45.5122 49.5765C47.0541 49.0651 47.8233 47.1391 47.2303 45.2746C46.6373 43.41 44.9067 42.313 43.3648 42.8244C41.8229 43.3357 41.0537 45.2617 41.6467 47.1263C42.2397 48.9908 43.9703 50.0878 45.5122 49.5765Z" fill="black"/>
<path d="M51.8445 55.6851C53.3863 55.1738 54.1555 53.2477 53.5626 51.3832C52.9696 49.5187 51.2389 48.4217 49.6971 48.933C48.1552 49.4444 47.386 51.3704 47.979 53.2349C48.572 55.0995 50.3026 56.1964 51.8445 55.6851Z" fill="black"/>
<path d="M38.8279 43.584C40.3697 43.0727 41.1389 41.1467 40.546 39.2821C39.953 37.4176 38.2223 36.3206 36.6805 36.8319C35.1386 37.3433 34.3694 39.2693 34.9624 41.1339C35.5554 42.9984 37.286 44.0954 38.8279 43.584Z" fill="black"/>
<path d="M53.3484 37.8211C54.8902 37.3097 55.6595 35.3837 55.0665 33.5192C54.4735 31.6546 52.7428 30.5577 51.201 31.069C49.6591 31.5803 48.8899 33.5064 49.4829 35.3709C50.0759 37.2354 51.8065 38.3324 53.3484 37.8211Z" fill="black"/>
<path d="M59.6794 43.929C61.2213 43.4177 61.9905 41.4916 61.3975 39.6271C60.8045 37.7626 59.0739 36.6656 57.532 37.1769C55.9902 37.6883 55.2209 39.6143 55.8139 41.4788C56.4069 43.3434 58.1376 44.4403 59.6794 43.929Z" fill="black"/>
<path d="M46.6697 31.8655C48.2115 31.3542 48.9807 29.4282 48.3877 27.5636C47.7948 25.6991 46.0641 24.6021 44.5223 25.1134C42.9804 25.6248 42.2112 27.5508 42.8042 29.4153C43.3972 31.2799 45.1278 32.3769 46.6697 31.8655Z" fill="black"/>
<path d="M122.606 22.3774H132.957V66.866H122.799L122.258 60.3584C119.787 65.6039 112.989 68.1281 108.122 68.207C95.2224 68.2859 85.6826 60.1612 85.6826 44.5823C85.6826 29.24 95.6473 21.2337 108.393 21.3126C114.225 21.3126 119.787 24.1128 122.258 28.5301L122.606 22.3774ZM96.4584 44.5823C96.4584 53.0619 102.213 58.1103 109.358 58.1103C126.314 58.1103 126.314 31.1332 109.358 31.1332C102.213 31.1332 96.4584 36.1026 96.4584 44.5823ZM174.129 66.866V43.5963C174.129 36.8126 170.498 31.6853 163.623 31.6853C156.98 31.6853 152.5 37.3647 152.5 44.1484V66.866H141.802V22.2986H151.419L152.114 28.3329C156.517 23.9156 160.958 21.6675 166.443 21.6675C176.678 21.6675 184.905 29.5161 184.905 43.5174V66.866H174.129ZM207.538 9.83545V22.4563H219.549V31.922H207.422V51.1293C207.422 55.3494 209.7 57.4398 213.061 57.4398C214.721 57.4398 216.691 56.8876 218.275 56.0988L221.287 65.4856C218.197 66.7477 215.648 67.2998 212.365 67.3787C202.903 67.7337 196.723 62.2515 196.723 51.1293V31.9614H188.612V22.4958H196.723V11.0581L207.538 9.83545ZM236.775 48.5263C237.47 54.0479 242.182 57.9919 249.752 57.9919C253.73 57.9919 258.944 56.4538 261.416 53.8507L268.291 60.7922C263.695 65.6828 256.202 68.0098 249.559 68.0098C234.535 68.0098 225.613 58.5441 225.613 44.2668C225.613 30.7388 234.612 20.997 248.748 20.997C263.309 20.997 272.424 30.1866 270.763 48.5263H236.775ZM260.451 39.4156C259.756 33.6573 255.314 30.7388 249.134 30.7388C243.302 30.7388 238.552 33.6179 236.93 39.4156H260.451Z" fill="white"/>
<path d="M266.553 11.0972H263.115V9.2041H271.998V11.0972H268.561V20.2079H266.514V11.0972H266.553ZM282.62 12.241L279.105 17.0133H278.719L275.281 12.2016V20.2079H273.234V9.2041H275.59L278.951 13.9369L282.311 9.2041H284.628V20.2079H282.581V12.241H282.62Z" fill="white"/>
</svg>
