<svg width="20" height="21" viewBox="0 0 20 21" fill="none" xmlns="http://www.w3.org/2000/svg">
<path d="M1.66699 6.45142L8.47109 11.2143C9.02207 11.6 9.29756 11.7928 9.59721 11.8675C9.8619 11.9335 10.1387 11.9335 10.4034 11.8675C10.7031 11.7928 10.9786 11.6 11.5296 11.2143L18.3337 6.45142M5.66699 17.2847H14.3337C15.7338 17.2847 16.4339 17.2847 16.9686 17.0123C17.439 16.7726 17.8215 16.3901 18.0612 15.9197C18.3337 15.3849 18.3337 14.6849 18.3337 13.2847V7.95142C18.3337 6.55128 18.3337 5.85122 18.0612 5.31644C17.8215 4.84603 17.439 4.46358 16.9686 4.2239C16.4339 3.95142 15.7338 3.95142 14.3337 3.95142H5.66699C4.26686 3.95142 3.5668 3.95142 3.03202 4.2239C2.56161 4.46358 2.17916 4.84603 1.93948 5.31644C1.66699 5.85122 1.66699 6.55128 1.66699 7.95142V13.2847C1.66699 14.6849 1.66699 15.3849 1.93948 15.9197C2.17916 16.3901 2.56161 16.7726 3.03202 17.0123C3.5668 17.2847 4.26686 17.2847 5.66699 17.2847Z" stroke="white" stroke-width="2.05128" stroke-linecap="round" stroke-linejoin="round"/>
</svg>
