<svg width="192" height="55" viewBox="0 0 192 55" fill="none" xmlns="http://www.w3.org/2000/svg">
<path opacity="0.25" d="M4.81647 7.67897L36.8324 25.1405C37.2696 25.3273 37.655 25.61 37.9574 25.9659C38.2599 26.3217 38.471 26.7408 38.5737 27.1893C38.5229 26.6957 38.3344 26.2245 38.0279 25.8251C37.7215 25.4257 37.3085 25.113 36.8324 24.9199L4.81647 7.45834C2.53313 6.19758 0.644043 7.23771 0.644043 9.75923V9.99562C0.693324 7.4741 2.53313 6.43397 4.81647 7.67897Z" fill="white"/>
<path opacity="0.12" d="M36.8326 29.2379L28.6191 33.6979L28.767 33.8397L36.8326 29.4586C37.3087 29.2654 37.7217 28.9527 38.0281 28.5534C38.3345 28.154 38.5231 27.6827 38.5738 27.1892C38.4711 27.6377 38.26 28.0567 37.9576 28.4126C37.6551 28.7684 37.2698 29.0512 36.8326 29.2379Z" fill="black"/>
<path opacity="0.12" d="M1.41727 46.6054C0.889625 45.9803 0.631045 45.1853 0.694483 44.3833V44.6197C0.638589 45.424 0.916069 46.217 1.46654 46.826L1.58153 46.7157L1.41727 46.6054Z" fill="black"/>
<path opacity="0.2" d="M28.6194 33.6981L4.81686 46.6997C4.34368 47.0423 3.767 47.2277 3.17418 47.2277C2.58135 47.2277 2.00468 47.0423 1.53149 46.6997L1.4165 46.81L1.53149 46.9361C2.00468 47.2787 2.58135 47.4641 3.17418 47.4641C3.767 47.4641 4.34368 47.2787 4.81686 46.9361L28.8165 33.84L28.6194 33.6981Z" fill="black"/>
<path d="M28.8165 20.5385L4.81686 7.45815C4.32903 7.08767 3.72066 6.89405 3.09873 6.91134C2.47681 6.92864 1.88115 7.15574 1.4165 7.55271L21.8844 27.1891L28.8165 20.5385Z" fill="url(#paint0_linear_348_1534)"/>
<path d="M28.8165 33.8397L21.8844 27.1892L1.4165 46.8256C1.88068 47.222 2.47483 47.45 3.09591 47.4701C3.71699 47.4903 4.32583 47.3013 4.81686 46.9359L28.8165 33.8397Z" fill="url(#paint1_linear_348_1534)"/>
<path d="M28.6188 33.9345L21.8838 27.4258V26.953L28.6188 20.4443L28.7666 20.5389L36.8322 24.92C39.132 26.165 39.132 28.2138 36.8322 29.4745L28.7995 33.8557L28.6188 33.9345Z" fill="url(#paint2_linear_348_1534)"/>
<path d="M1.41634 7.55258C0.87502 8.1666 0.598817 8.95591 0.644271 9.75891V44.6189C0.588377 45.4233 0.865861 46.2162 1.41634 46.8253L1.53132 46.9514L21.8842 27.4253V26.9525L1.53132 7.44226L1.41634 7.55258Z" fill="url(#paint3_linear_348_1534)"/>
<path d="M58.3125 17.1909H54.3151V5.09828H58.2456C59.4499 5.09828 60.5036 5.35474 61.4068 5.86766C62.3211 6.36943 63.0292 7.07748 63.5309 7.99182C64.0439 8.895 64.3003 9.94872 64.3003 11.153C64.3003 12.3461 64.0494 13.3998 63.5477 14.3141C63.0459 15.2173 62.3434 15.9253 61.4402 16.4383C60.5482 16.94 59.5056 17.1909 58.3125 17.1909ZM55.9542 5.86766V16.4383L55.1848 15.6689H58.1955C59.0986 15.6689 59.8736 15.4849 60.5203 15.1169C61.1782 14.749 61.6855 14.2305 62.0424 13.5615C62.4103 12.8813 62.5943 12.0784 62.5943 11.153C62.5943 10.2163 62.4103 9.40792 62.0424 8.72775C61.6855 8.04757 61.1726 7.5235 60.5036 7.15554C59.8457 6.78757 59.054 6.60359 58.1286 6.60359H55.1848L55.9542 5.86766ZM65.5828 13.0931C65.5828 12.2569 65.7668 11.5154 66.1348 10.8686C66.5027 10.2219 67.0045 9.71456 67.6401 9.3466C68.2868 8.97863 69.0227 8.79465 69.8479 8.79465C70.673 8.79465 71.4033 8.97863 72.0389 9.3466C72.6745 9.71456 73.1763 10.2219 73.5442 10.8686C73.9122 11.5154 74.0962 12.2569 74.0962 13.0931C74.0962 13.9294 73.9122 14.6709 73.5442 15.3176C73.1763 15.9644 72.6745 16.4717 72.0389 16.8397C71.4033 17.2076 70.673 17.3916 69.8479 17.3916C69.0227 17.3916 68.2868 17.2076 67.6401 16.8397C67.0045 16.4717 66.5027 15.9644 66.1348 15.3176C65.7668 14.6709 65.5828 13.9294 65.5828 13.0931ZM67.1718 13.0931C67.1718 13.6618 67.2833 14.1636 67.5063 14.5984C67.7404 15.0333 68.0582 15.3734 68.4596 15.6187C68.8611 15.864 69.3238 15.9867 69.8479 15.9867C70.3719 15.9867 70.8347 15.864 71.2361 15.6187C71.6375 15.3734 71.9497 15.0333 72.1727 14.5984C72.4069 14.1636 72.524 13.6618 72.524 13.0931C72.524 12.5133 72.4069 12.0115 72.1727 11.5878C71.9497 11.153 71.6375 10.8129 71.2361 10.5676C70.8347 10.3223 70.3719 10.1996 69.8479 10.1996C69.3238 10.1996 68.8611 10.3223 68.4596 10.5676C68.0582 10.8129 67.7404 11.153 67.5063 11.5878C67.2833 12.0115 67.1718 12.5133 67.1718 13.0931ZM77.2171 17.1909L74.541 9.01208H76.1634L77.5181 13.2604C77.6185 13.5615 77.7077 13.8737 77.7857 14.197C77.8638 14.5092 77.9419 14.8438 78.0199 15.2006C78.0645 14.9553 78.1147 14.7211 78.1704 14.4981C78.2373 14.2639 78.3042 14.0465 78.3711 13.8458C78.438 13.6339 78.4994 13.4388 78.5551 13.2604L79.9266 9.01208H81.5323L82.8871 13.2604C82.9317 13.3607 82.9707 13.4946 83.0041 13.6618C83.0487 13.8179 83.0989 13.9852 83.1547 14.1636C83.2104 14.342 83.2606 14.5204 83.3052 14.6988C83.3498 14.8772 83.3888 15.0445 83.4223 15.2006C83.4669 14.9776 83.5115 14.7657 83.5561 14.565C83.6118 14.3531 83.6676 14.1469 83.7233 13.9461C83.7902 13.7343 83.8627 13.5057 83.9408 13.2604L85.3123 9.01208H86.9514L84.1582 17.1909H82.6696L81.248 12.8088C81.1141 12.3962 81.0026 12.0338 80.9134 11.7216C80.8354 11.3983 80.7741 11.1251 80.7295 10.9021C80.6849 11.1028 80.618 11.3537 80.5288 11.6547C80.4507 11.9446 80.3392 12.3349 80.1942 12.8255L78.7726 17.1909H77.2171ZM89.8713 17.1909H88.2991V9.01208H89.7208L89.888 10.2665C90.1445 9.79819 90.5125 9.4358 90.9919 9.17934C91.4826 8.91173 92.0178 8.77792 92.5976 8.77792C93.668 8.77792 94.4597 9.08456 94.9726 9.69783C95.4856 10.3111 95.742 11.1418 95.742 12.19V17.1909H94.1698V12.5412C94.1698 11.7161 93.9914 11.1251 93.6346 10.7683C93.2778 10.4003 92.7983 10.2163 92.1962 10.2163C91.4603 10.2163 90.886 10.4561 90.4734 10.9355C90.072 11.415 89.8713 12.0561 89.8713 12.859V17.1909ZM99.5253 17.1909H97.9531V4.88085H99.5253V17.1909ZM101.304 13.0931C101.304 12.2569 101.488 11.5154 101.856 10.8686C102.224 10.2219 102.726 9.71456 103.362 9.3466C104.008 8.97863 104.744 8.79465 105.57 8.79465C106.395 8.79465 107.125 8.97863 107.761 9.3466C108.396 9.71456 108.898 10.2219 109.266 10.8686C109.634 11.5154 109.818 12.2569 109.818 13.0931C109.818 13.9294 109.634 14.6709 109.266 15.3176C108.898 15.9644 108.396 16.4717 107.761 16.8397C107.125 17.2076 106.395 17.3916 105.57 17.3916C104.744 17.3916 104.008 17.2076 103.362 16.8397C102.726 16.4717 102.224 15.9644 101.856 15.3176C101.488 14.6709 101.304 13.9294 101.304 13.0931ZM102.893 13.0931C102.893 13.6618 103.005 14.1636 103.228 14.5984C103.462 15.0333 103.78 15.3734 104.181 15.6187C104.583 15.864 105.045 15.9867 105.57 15.9867C106.094 15.9867 106.556 15.864 106.958 15.6187C107.359 15.3734 107.671 15.0333 107.894 14.5984C108.129 14.1636 108.246 13.6618 108.246 13.0931C108.246 12.5133 108.129 12.0115 107.894 11.5878C107.671 11.153 107.359 10.8129 106.958 10.5676C106.556 10.3223 106.094 10.1996 105.57 10.1996C105.045 10.1996 104.583 10.3223 104.181 10.5676C103.78 10.8129 103.462 11.153 103.228 11.5878C103.005 12.0115 102.893 12.5133 102.893 13.0931ZM113.95 17.3916C113.08 17.3916 112.394 17.163 111.893 16.7059C111.402 16.2487 111.157 15.6522 111.157 14.9162C111.157 14.1692 111.424 13.5726 111.96 13.1266C112.495 12.6694 113.242 12.4018 114.201 12.3238L116.777 12.1231V11.8889C116.777 11.4317 116.693 11.0693 116.526 10.8017C116.358 10.523 116.13 10.3278 115.84 10.2163C115.55 10.0937 115.221 10.0323 114.853 10.0323C114.195 10.0323 113.682 10.1717 113.314 10.4505C112.958 10.7181 112.779 11.1028 112.779 11.6046H111.408C111.408 11.0359 111.553 10.5397 111.843 10.116C112.132 9.69226 112.539 9.36332 113.064 9.12916C113.599 8.895 114.218 8.77792 114.92 8.77792C115.6 8.77792 116.191 8.90058 116.693 9.14589C117.206 9.38005 117.602 9.74244 117.88 10.2331C118.17 10.7125 118.315 11.3202 118.315 12.0561V17.1909H116.977L116.81 15.8696C116.598 16.3379 116.23 16.7114 115.706 16.9902C115.193 17.2578 114.608 17.3916 113.95 17.3916ZM114.402 16.1707C115.149 16.1707 115.734 15.9476 116.158 15.5016C116.581 15.0445 116.793 14.4312 116.793 13.6618V13.2269L114.703 13.3942C114.011 13.4611 113.51 13.6228 113.197 13.8792C112.896 14.1357 112.746 14.4646 112.746 14.8661C112.746 15.3009 112.891 15.6299 113.181 15.8529C113.482 16.0647 113.889 16.1707 114.402 16.1707ZM123.771 17.3916C122.979 17.3916 122.299 17.2132 121.73 16.8564C121.162 16.4884 120.721 15.9811 120.409 15.3344C120.108 14.6876 119.957 13.9517 119.957 13.1266C119.957 12.2903 120.114 11.5488 120.426 10.9021C120.738 10.2442 121.184 9.72571 121.764 9.3466C122.344 8.96748 123.035 8.77792 123.838 8.77792C124.473 8.77792 125.036 8.91173 125.527 9.17934C126.029 9.4358 126.419 9.82049 126.698 10.3334V4.88085H128.253V17.1909H126.848L126.715 15.7023C126.447 16.2487 126.051 16.6668 125.527 16.9568C125.014 17.2467 124.429 17.3916 123.771 17.3916ZM124.089 15.9699C124.624 15.9699 125.081 15.8473 125.46 15.602C125.85 15.3567 126.152 15.0166 126.363 14.5817C126.575 14.1469 126.681 13.6451 126.681 13.0764C126.681 12.5077 126.575 12.0115 126.363 11.5878C126.152 11.153 125.85 10.8129 125.46 10.5676C125.081 10.3223 124.624 10.1996 124.089 10.1996C123.553 10.1996 123.096 10.3278 122.717 10.5843C122.338 10.8296 122.048 11.1697 121.847 11.6046C121.647 12.0283 121.546 12.5189 121.546 13.0764C121.546 13.6451 121.647 14.1469 121.847 14.5817C122.048 15.0166 122.338 15.3567 122.717 15.602C123.096 15.8473 123.553 15.9699 124.089 15.9699ZM135.864 17.1909H134.158L138.574 5.09828H140.397L144.829 17.1909H143.107L142.019 14.1803H136.935L135.864 17.1909ZM139.276 7.70748L137.437 12.7586H141.534L139.678 7.70748C139.644 7.58483 139.605 7.46217 139.561 7.33952C139.516 7.20571 139.488 7.09421 139.477 7.00501C139.455 7.09421 139.427 7.20571 139.393 7.33952C139.36 7.46217 139.321 7.58483 139.276 7.70748ZM146.169 20.8538V9.01208H147.591L147.708 10.4839C147.976 9.91527 148.371 9.49155 148.895 9.21279C149.431 8.92288 150.022 8.77792 150.668 8.77792C151.449 8.77792 152.123 8.96191 152.692 9.32987C153.261 9.68668 153.696 10.1885 153.997 10.8352C154.309 11.4708 154.465 12.2067 154.465 13.043C154.465 13.8792 154.315 14.6263 154.013 15.2842C153.724 15.9421 153.294 16.4606 152.726 16.8397C152.168 17.2188 151.482 17.4084 150.668 17.4084C150.01 17.4084 149.425 17.2745 148.912 17.0069C148.399 16.7393 148.009 16.3546 147.741 15.8529V20.8538H146.169ZM147.758 13.1099C147.758 13.6562 147.858 14.1524 148.059 14.5984C148.271 15.0333 148.566 15.3734 148.946 15.6187C149.336 15.864 149.799 15.9867 150.334 15.9867C150.869 15.9867 151.326 15.864 151.705 15.6187C152.084 15.3622 152.374 15.0166 152.575 14.5817C152.787 14.1469 152.893 13.6562 152.893 13.1099C152.893 12.5412 152.787 12.0394 152.575 11.6046C152.374 11.1697 152.084 10.8296 151.705 10.5843C151.326 10.339 150.869 10.2163 150.334 10.2163C149.799 10.2163 149.336 10.339 148.946 10.5843C148.566 10.8296 148.271 11.1697 148.059 11.6046C147.858 12.0394 147.758 12.5412 147.758 13.1099ZM156.198 20.8538V9.01208H157.62L157.737 10.4839C158.004 9.91527 158.4 9.49155 158.924 9.21279C159.459 8.92288 160.05 8.77792 160.697 8.77792C161.478 8.77792 162.152 8.96191 162.721 9.32987C163.29 9.68668 163.725 10.1885 164.026 10.8352C164.338 11.4708 164.494 12.2067 164.494 13.043C164.494 13.8792 164.343 14.6263 164.042 15.2842C163.752 15.9421 163.323 16.4606 162.754 16.8397C162.197 17.2188 161.511 17.4084 160.697 17.4084C160.039 17.4084 159.454 17.2745 158.941 17.0069C158.428 16.7393 158.038 16.3546 157.77 15.8529V20.8538H156.198ZM157.787 13.1099C157.787 13.6562 157.887 14.1524 158.088 14.5984C158.3 15.0333 158.595 15.3734 158.974 15.6187C159.365 15.864 159.827 15.9867 160.363 15.9867C160.898 15.9867 161.355 15.864 161.734 15.6187C162.113 15.3622 162.403 15.0166 162.604 14.5817C162.816 14.1469 162.922 13.6562 162.922 13.1099C162.922 12.5412 162.816 12.0394 162.604 11.6046C162.403 11.1697 162.113 10.8296 161.734 10.5843C161.355 10.339 160.898 10.2163 160.363 10.2163C159.827 10.2163 159.365 10.339 158.974 10.5843C158.595 10.8296 158.3 11.1697 158.088 11.6046C157.887 12.0394 157.787 12.5412 157.787 13.1099ZM170.265 13.0931C170.265 12.2569 170.449 11.5154 170.817 10.8686C171.185 10.2219 171.687 9.71456 172.322 9.3466C172.969 8.97863 173.705 8.79465 174.53 8.79465C175.355 8.79465 176.086 8.97863 176.721 9.3466C177.357 9.71456 177.858 10.2219 178.226 10.8686C178.594 11.5154 178.778 12.2569 178.778 13.0931C178.778 13.9294 178.594 14.6709 178.226 15.3176C177.858 15.9644 177.357 16.4717 176.721 16.8397C176.086 17.2076 175.355 17.3916 174.53 17.3916C173.705 17.3916 172.969 17.2076 172.322 16.8397C171.687 16.4717 171.185 15.9644 170.817 15.3176C170.449 14.6709 170.265 13.9294 170.265 13.0931ZM171.854 13.0931C171.854 13.6618 171.965 14.1636 172.188 14.5984C172.423 15.0333 172.74 15.3734 173.142 15.6187C173.543 15.864 174.006 15.9867 174.53 15.9867C175.054 15.9867 175.517 15.864 175.918 15.6187C176.32 15.3734 176.632 15.0333 176.855 14.5984C177.089 14.1636 177.206 13.6618 177.206 13.0931C177.206 12.5133 177.089 12.0115 176.855 11.5878C176.632 11.153 176.32 10.8129 175.918 10.5676C175.517 10.3223 175.054 10.1996 174.53 10.1996C174.006 10.1996 173.543 10.3223 173.142 10.5676C172.74 10.8129 172.423 11.153 172.188 11.5878C171.965 12.0115 171.854 12.5133 171.854 13.0931ZM182.091 17.1909H180.519V9.01208H181.94L182.108 10.2665C182.364 9.79819 182.732 9.4358 183.212 9.17934C183.702 8.91173 184.237 8.77792 184.817 8.77792C185.888 8.77792 186.679 9.08456 187.192 9.69783C187.705 10.3111 187.962 11.1418 187.962 12.19V17.1909H186.389V12.5412C186.389 11.7161 186.211 11.1251 185.854 10.7683C185.497 10.4003 185.018 10.2163 184.416 10.2163C183.68 10.2163 183.106 10.4561 182.693 10.9355C182.292 11.415 182.091 12.0561 182.091 12.859V17.1909Z" fill="white"/>
<path d="M62.7066 32.8547C61.6393 32.8547 60.7473 33.0936 60.0305 33.5715C59.3137 34.0334 58.7721 34.6865 58.4057 35.5308C58.0394 36.375 57.8562 37.3706 57.8562 38.5175C57.8562 39.6962 58.0632 40.6839 58.4774 41.4803C58.8916 42.2768 59.457 42.8741 60.1739 43.2723C60.9066 43.6546 61.7429 43.8458 62.6827 43.8458C63.4792 43.8458 64.1562 43.7423 64.7137 43.5352C65.2712 43.3281 65.7172 43.0414 66.0517 42.675C66.4022 42.3086 66.657 41.8945 66.8163 41.4325C66.9915 40.9706 67.0792 40.4927 67.0792 39.9989V38.5892L68.919 40.429H62.3721V37.0361H70.6871V47.1909H67.3659L67.0553 44.7776L67.4854 45.1361C67.2305 45.598 66.8323 46.0042 66.2907 46.3546C65.765 46.7051 65.1438 46.9759 64.4269 47.167C63.7261 47.3582 62.9774 47.4537 62.1809 47.4537C60.5402 47.4537 59.0827 47.0794 57.8084 46.3307C56.55 45.5661 55.5624 44.5069 54.8456 43.1529C54.1287 41.7989 53.7703 40.2139 53.7703 38.398C53.7703 36.6139 54.1447 35.037 54.8933 33.667C55.642 32.2812 56.6933 31.198 58.0473 30.4175C59.4013 29.621 60.9862 29.2228 62.8022 29.2228C64.2199 29.2228 65.4942 29.4856 66.6252 30.0113C67.7721 30.521 68.7039 31.2538 69.4207 32.2095C70.1376 33.1494 70.5597 34.2564 70.6871 35.5308H66.6252C66.4022 34.5909 65.9243 33.914 65.1915 33.4998C64.4588 33.0697 63.6305 32.8547 62.7066 32.8547ZM72.7845 41.1936C72.7845 39.9352 73.0633 38.8361 73.6208 37.8962C74.1943 36.9405 74.9748 36.1998 75.9624 35.6741C76.9659 35.1485 78.1049 34.8856 79.3792 34.8856C80.6535 34.8856 81.7845 35.1485 82.7721 35.6741C83.7597 36.1998 84.5323 36.9405 85.0898 37.8962C85.6633 38.8361 85.95 39.9352 85.95 41.1936C85.95 42.452 85.6633 43.5511 85.0898 44.4909C84.5323 45.4307 83.7597 46.1635 82.7721 46.6891C81.7845 47.2148 80.6535 47.4776 79.3792 47.4776C78.1049 47.4776 76.9659 47.2148 75.9624 46.6891C74.9748 46.1635 74.1943 45.4307 73.6208 44.4909C73.0633 43.5511 72.7845 42.452 72.7845 41.1936ZM76.4881 41.1697C76.4881 41.775 76.6075 42.3086 76.8465 42.7706C77.1013 43.2166 77.4438 43.567 77.8739 43.8219C78.304 44.0608 78.8058 44.1803 79.3792 44.1803C79.9527 44.1803 80.4544 44.0608 80.8845 43.8219C81.3146 43.567 81.6491 43.2166 81.8881 42.7706C82.127 42.3086 82.2465 41.775 82.2465 41.1697C82.2465 40.5644 82.127 40.0387 81.8881 39.5927C81.6491 39.1467 81.3146 38.8042 80.8845 38.5653C80.4544 38.3104 79.9527 38.183 79.3792 38.183C78.8058 38.183 78.304 38.3104 77.8739 38.5653C77.4438 38.8042 77.1013 39.1467 76.8465 39.5927C76.6075 40.0387 76.4881 40.5644 76.4881 41.1697ZM87.4381 41.1936C87.4381 39.9352 87.7169 38.8361 88.2744 37.8962C88.8479 36.9405 89.6284 36.1998 90.616 35.6741C91.6195 35.1485 92.7585 34.8856 94.0328 34.8856C95.3071 34.8856 96.4381 35.1485 97.4257 35.6741C98.4133 36.1998 99.1859 36.9405 99.7434 37.8962C100.317 38.8361 100.604 39.9352 100.604 41.1936C100.604 42.452 100.317 43.5511 99.7434 44.4909C99.1859 45.4307 98.4133 46.1635 97.4257 46.6891C96.4381 47.2148 95.3071 47.4776 94.0328 47.4776C92.7585 47.4776 91.6195 47.2148 90.616 46.6891C89.6284 46.1635 88.8479 45.4307 88.2744 44.4909C87.7169 43.5511 87.4381 42.452 87.4381 41.1936ZM91.1417 41.1697C91.1417 41.775 91.2611 42.3086 91.5001 42.7706C91.7549 43.2166 92.0974 43.567 92.5275 43.8219C92.9576 44.0608 93.4594 44.1803 94.0328 44.1803C94.6063 44.1803 95.108 44.0608 95.5381 43.8219C95.9682 43.567 96.3027 43.2166 96.5417 42.7706C96.7806 42.3086 96.9001 41.775 96.9001 41.1697C96.9001 40.5644 96.7806 40.0387 96.5417 39.5927C96.3027 39.1467 95.9682 38.8042 95.5381 38.5653C95.108 38.3104 94.6063 38.183 94.0328 38.183C93.4594 38.183 92.9576 38.3104 92.5275 38.5653C92.0974 38.8042 91.7549 39.1467 91.5001 39.5927C91.2611 40.0387 91.1417 40.5644 91.1417 41.1697ZM102.14 41.0024C102.14 39.7918 102.378 38.7246 102.856 37.8007C103.35 36.8768 104.027 36.152 104.887 35.6263C105.763 35.1007 106.759 34.8378 107.874 34.8378C108.814 34.8378 109.618 35.029 110.287 35.4113C110.972 35.7936 111.442 36.2954 111.697 36.9166L111.339 37.1555L111.625 35.244H115.09V46.4263C115.09 47.844 114.827 49.0626 114.301 50.0821C113.776 51.1175 113.027 51.906 112.055 52.4475C111.084 53.0051 109.913 53.2838 108.543 53.2838C106.711 53.2838 105.222 52.79 104.075 51.8024C102.928 50.8307 102.267 49.5006 102.092 47.8122H105.819C105.851 48.4812 106.106 48.9989 106.584 49.3653C107.062 49.7476 107.707 49.9387 108.519 49.9387C109.411 49.9387 110.112 49.6918 110.622 49.198C111.147 48.7042 111.41 48.0352 111.41 47.1909V44.6582L111.816 44.9688C111.562 45.59 111.068 46.0918 110.335 46.4741C109.602 46.8564 108.758 47.0476 107.802 47.0476C106.687 47.0476 105.7 46.7927 104.84 46.283C103.995 45.7732 103.334 45.0644 102.856 44.1564C102.378 43.2484 102.14 42.1971 102.14 41.0024ZM105.843 40.9069C105.843 41.4803 105.963 41.99 106.201 42.4361C106.44 42.8661 106.767 43.2086 107.181 43.4635C107.595 43.7184 108.073 43.8458 108.615 43.8458C109.172 43.8458 109.658 43.7263 110.072 43.4874C110.502 43.2325 110.829 42.89 111.052 42.46C111.291 42.0139 111.41 41.4962 111.41 40.9069C111.41 40.3175 111.291 39.8157 111.052 39.4016C110.829 38.9715 110.502 38.637 110.072 38.398C109.658 38.1591 109.164 38.0396 108.591 38.0396C108.049 38.0396 107.571 38.1591 107.157 38.398C106.743 38.637 106.416 38.9715 106.178 39.4016C105.955 39.8316 105.843 40.3334 105.843 40.9069ZM121.537 47.1909H117.857V29.175H121.537V47.1909ZM129.841 47.5015C128.646 47.5015 127.579 47.2307 126.639 46.6891C125.715 46.1476 124.982 45.4069 124.441 44.467C123.915 43.5113 123.652 42.4201 123.652 41.1936C123.652 39.9511 123.907 38.86 124.417 37.9201C124.942 36.9644 125.667 36.2157 126.591 35.6741C127.515 35.1325 128.574 34.8617 129.769 34.8617C131.027 34.8617 132.111 35.1246 133.018 35.6502C133.926 36.16 134.627 36.8927 135.121 37.8485C135.615 38.7883 135.862 39.9113 135.862 41.2175V42.1493L125.588 42.1971L125.635 39.9272H132.206C132.206 39.29 131.991 38.7883 131.561 38.4219C131.131 38.0396 130.541 37.8485 129.793 37.8485C129.172 37.8485 128.662 37.9679 128.264 38.2069C127.881 38.4458 127.595 38.8201 127.403 39.3299C127.212 39.8237 127.117 40.4608 127.117 41.2414C127.117 42.3564 127.34 43.1847 127.786 43.7263C128.248 44.252 128.957 44.5148 129.912 44.5148C130.613 44.5148 131.195 44.3953 131.657 44.1564C132.118 43.9175 132.413 43.583 132.541 43.1529H135.91C135.703 44.475 135.049 45.5343 133.95 46.3307C132.851 47.1113 131.481 47.5015 129.841 47.5015ZM148.689 29.5095V47.1909H144.818V29.5095H148.689ZM151.986 41.3131H147.733V37.8724H151.126C152.066 37.8724 152.767 37.6732 153.229 37.275C153.691 36.8608 153.922 36.2396 153.922 35.4113C153.922 34.583 153.691 33.9697 153.229 33.5715C152.767 33.1573 152.066 32.9502 151.126 32.9502H147.733V29.5095H151.986C153.197 29.5095 154.248 29.7564 155.14 30.2502C156.048 30.744 156.749 31.437 157.243 32.329C157.753 33.2051 158.008 34.2325 158.008 35.4113C158.008 36.5901 157.753 37.6254 157.243 38.5175C156.749 39.3936 156.048 40.0785 155.14 40.5723C154.248 41.0662 153.197 41.3131 151.986 41.3131ZM163.678 47.1909H159.998V29.175H163.678V47.1909ZM170.046 47.5015C168.788 47.5015 167.784 47.1591 167.035 46.4741C166.303 45.7732 165.936 44.8414 165.936 43.6785C165.936 42.5794 166.311 41.7033 167.059 41.0502C167.824 40.3971 168.923 40.0148 170.357 39.9033L173.702 39.6405V39.4493C173.702 39.0511 173.622 38.7246 173.463 38.4697C173.303 38.1989 173.073 37.9998 172.77 37.8724C172.483 37.729 172.117 37.6573 171.671 37.6573C170.89 37.6573 170.293 37.8007 169.879 38.0874C169.48 38.3741 169.281 38.7883 169.281 39.3299H166.223C166.223 38.4219 166.454 37.6334 166.916 36.9644C167.378 36.2954 168.031 35.7777 168.875 35.4113C169.735 35.0449 170.731 34.8617 171.862 34.8617C173.025 34.8617 174.004 35.0688 174.801 35.483C175.613 35.8971 176.226 36.5024 176.641 37.2989C177.071 38.0954 177.286 39.067 177.286 40.2139V47.1909H174.036L173.797 45.6139C173.606 46.1555 173.152 46.6095 172.435 46.9759C171.734 47.3263 170.938 47.5015 170.046 47.5015ZM171.336 44.7776C172.037 44.7776 172.611 44.6104 173.057 44.2759C173.503 43.9254 173.726 43.4077 173.726 42.7228V42.0777L171.862 42.2449C171.065 42.3086 170.5 42.444 170.165 42.6511C169.847 42.8423 169.688 43.129 169.688 43.5113C169.688 43.9414 169.823 44.2599 170.094 44.467C170.365 44.6741 170.779 44.7776 171.336 44.7776ZM182.251 35.244L185.763 45.5661L183.971 49.8192L178.309 35.244H182.251ZM178.619 52.9254V49.8431H180.65C181.064 49.8431 181.407 49.7874 181.678 49.6759C181.948 49.5803 182.179 49.413 182.37 49.1741C182.562 48.9352 182.737 48.6006 182.896 48.1706L187.747 35.244H191.57L185.501 49.7953C185.007 51.006 184.401 51.8821 183.685 52.4237C182.984 52.9812 182.108 53.2599 181.056 53.2599C180.61 53.2599 180.18 53.2281 179.766 53.1644C179.368 53.1166 178.986 53.0369 178.619 52.9254Z" fill="white"/>
<defs>
<linearGradient id="paint0_linear_348_1534" x1="-3.74153" y1="-4.04629" x2="12.2564" y2="12.629" gradientUnits="userSpaceOnUse">
<stop stop-color="#32A071"/>
<stop offset="0.07" stop-color="#2DA771"/>
<stop offset="0.48" stop-color="#15CF74"/>
<stop offset="0.8" stop-color="#06E775"/>
<stop offset="1" stop-color="#00F076"/>
</linearGradient>
<linearGradient id="paint1_linear_348_1534" x1="25.0547" y1="30.8139" x2="-10.7837" y2="68.1535" gradientUnits="userSpaceOnUse">
<stop stop-color="#FF3A44"/>
<stop offset="1" stop-color="#C31162"/>
</linearGradient>
<linearGradient id="paint2_linear_348_1534" x1="39.8383" y1="27.1894" x2="0.101787" y2="27.1894" gradientUnits="userSpaceOnUse">
<stop stop-color="#FFE000"/>
<stop offset="0.41" stop-color="#FFBD00"/>
<stop offset="0.78" stop-color="#FFA500"/>
<stop offset="1" stop-color="#FF9C00"/>
</linearGradient>
<linearGradient id="paint3_linear_348_1534" x1="20.0772" y1="9.39644" x2="-6.34449" y2="36.937" gradientUnits="userSpaceOnUse">
<stop stop-color="#00A0FF"/>
<stop offset="0.01" stop-color="#00A1FF"/>
<stop offset="0.26" stop-color="#00BEFF"/>
<stop offset="0.51" stop-color="#00D2FF"/>
<stop offset="0.76" stop-color="#00DFFF"/>
<stop offset="1" stop-color="#00E3FF"/>
</linearGradient>
</defs>
</svg>
