<svg width="303" height="34" viewBox="0 0 303 34" fill="none" xmlns="http://www.w3.org/2000/svg">
<path opacity="0.25" d="M4.12403 0.643385L29.8339 15.2594C30.185 15.4157 30.4945 15.6524 30.7373 15.9502C30.9802 16.2481 31.1497 16.5989 31.2322 16.9742C31.1914 16.5611 31.0401 16.1667 30.794 15.8324C30.5479 15.4981 30.2162 15.2363 29.8339 15.0747L4.12403 0.458705C2.29044 -0.596601 0.773438 0.274028 0.773438 2.38464V2.58251C0.813011 0.471897 2.29044 -0.398729 4.12403 0.643385Z" fill="white"/>
<path opacity="0.12" d="M29.8339 18.689L23.2383 22.4221L23.357 22.5409L29.8339 18.8737C30.2163 18.712 30.5479 18.4503 30.794 18.116C31.0401 17.7817 31.1915 17.3872 31.2322 16.9741C31.1498 17.3495 30.9802 17.7003 30.7374 17.9981C30.4945 18.296 30.185 18.5326 29.8339 18.689Z" fill="black"/>
<path opacity="0.12" d="M1.39341 33.2261C0.969694 32.7028 0.762045 32.0374 0.812988 31.3661V31.564C0.768103 32.2372 0.990929 32.901 1.43298 33.4107L1.52532 33.3184L1.39341 33.2261Z" fill="black"/>
<path opacity="0.2" d="M23.2383 22.4222L4.12404 33.3051C3.74405 33.5919 3.28096 33.747 2.8049 33.747C2.32885 33.747 1.86575 33.5919 1.48577 33.3051L1.39343 33.3974L1.48577 33.5029C1.86575 33.7897 2.32885 33.9449 2.8049 33.9449C3.28096 33.9449 3.74405 33.7897 4.12404 33.5029L23.3966 22.541L23.2383 22.4222Z" fill="black"/>
<path d="M23.3966 11.4074L4.12404 0.458588C3.73229 0.14848 3.24375 -0.0135839 2.74432 0.000892245C2.24489 0.0153683 1.76656 0.205459 1.39343 0.537738L17.8298 16.9741L23.3966 11.4074Z" fill="url(#paint0_linear_366_1359)"/>
<path d="M23.3966 22.5409L17.8298 16.9741L1.39343 33.4105C1.76619 33.7423 2.2433 33.9332 2.74205 33.9501C3.2408 33.9669 3.72972 33.8087 4.12404 33.5028L23.3966 22.5409Z" fill="url(#paint1_linear_366_1359)"/>
<path d="M23.2383 22.6201L17.8298 17.1721V16.7764L23.2383 11.3284L23.357 11.4075L29.8339 15.0747C31.6807 16.1168 31.6807 17.8317 29.8339 18.887L23.3834 22.5542L23.2383 22.6201Z" fill="url(#paint2_linear_366_1359)"/>
<path d="M1.39337 0.537654C0.958672 1.05161 0.736872 1.71229 0.773373 2.38444V31.5636C0.728488 32.2369 0.951317 32.9006 1.39337 33.4104L1.48571 33.516L17.8298 17.1719V16.7762L1.48571 0.445312L1.39337 0.537654Z" fill="url(#paint3_linear_366_1359)"/>
<path d="M53.4002 24.9756H49.5762V13.4076H53.3362C54.4882 13.4076 55.4962 13.6529 56.3602 14.1436C57.2348 14.6236 57.9122 15.3009 58.3922 16.1756C58.8828 17.0396 59.1282 18.0476 59.1282 19.1996C59.1282 20.3409 58.8882 21.3489 58.4082 22.2236C57.9282 23.0876 57.2562 23.7649 56.3922 24.2556C55.5388 24.7356 54.5415 24.9756 53.4002 24.9756ZM51.1442 14.1436V24.2556L50.4082 23.5196H53.2882C54.1522 23.5196 54.8935 23.3436 55.5122 22.9916C56.1415 22.6396 56.6268 22.1436 56.9682 21.5036C57.3202 20.8529 57.4962 20.0849 57.4962 19.1996C57.4962 18.3036 57.3202 17.5303 56.9682 16.8796C56.6268 16.2289 56.1362 15.7276 55.4962 15.3756C54.8668 15.0236 54.1095 14.8476 53.2242 14.8476H50.4082L51.1442 14.1436ZM60.3551 21.0556C60.3551 20.2556 60.5311 19.5463 60.8831 18.9276C61.2351 18.3089 61.7151 17.8236 62.3231 17.4716C62.9417 17.1196 63.6457 16.9436 64.4351 16.9436C65.2244 16.9436 65.9231 17.1196 66.5311 17.4716C67.1391 17.8236 67.6191 18.3089 67.9711 18.9276C68.3231 19.5463 68.4991 20.2556 68.4991 21.0556C68.4991 21.8556 68.3231 22.5649 67.9711 23.1836C67.6191 23.8023 67.1391 24.2876 66.5311 24.6396C65.9231 24.9916 65.2244 25.1676 64.4351 25.1676C63.6457 25.1676 62.9417 24.9916 62.3231 24.6396C61.7151 24.2876 61.2351 23.8023 60.8831 23.1836C60.5311 22.5649 60.3551 21.8556 60.3551 21.0556ZM61.8751 21.0556C61.8751 21.5996 61.9817 22.0796 62.1951 22.4956C62.4191 22.9116 62.7231 23.2369 63.1071 23.4716C63.4911 23.7063 63.9337 23.8236 64.4351 23.8236C64.9364 23.8236 65.3791 23.7063 65.7631 23.4716C66.1471 23.2369 66.4457 22.9116 66.6591 22.4956C66.8831 22.0796 66.9951 21.5996 66.9951 21.0556C66.9951 20.5009 66.8831 20.0209 66.6591 19.6156C66.4457 19.1996 66.1471 18.8743 65.7631 18.6396C65.3791 18.4049 64.9364 18.2876 64.4351 18.2876C63.9337 18.2876 63.4911 18.4049 63.1071 18.6396C62.7231 18.8743 62.4191 19.1996 62.1951 19.6156C61.9817 20.0209 61.8751 20.5009 61.8751 21.0556ZM71.4846 24.9756L68.9246 17.1516H70.4766L71.7726 21.2156C71.8686 21.5036 71.9539 21.8023 72.0286 22.1116C72.1032 22.4103 72.1779 22.7303 72.2526 23.0716C72.2952 22.8369 72.3432 22.6129 72.3966 22.3996C72.4606 22.1756 72.5246 21.9676 72.5886 21.7756C72.6526 21.5729 72.7112 21.3863 72.7646 21.2156L74.0766 17.1516H75.6126L76.9086 21.2156C76.9512 21.3116 76.9886 21.4396 77.0206 21.5996C77.0632 21.7489 77.1112 21.9089 77.1646 22.0796C77.2179 22.2503 77.2659 22.4209 77.3086 22.5916C77.3512 22.7623 77.3886 22.9223 77.4206 23.0716C77.4632 22.8583 77.5059 22.6556 77.5486 22.4636C77.6019 22.2609 77.6552 22.0636 77.7086 21.8716C77.7726 21.6689 77.8419 21.4503 77.9166 21.2156L79.2286 17.1516H80.7966L78.1246 24.9756H76.7006L75.3406 20.7836C75.2126 20.3889 75.1059 20.0423 75.0206 19.7436C74.9459 19.4343 74.8872 19.1729 74.8446 18.9596C74.8019 19.1516 74.7379 19.3916 74.6526 19.6796C74.5779 19.9569 74.4712 20.3303 74.3326 20.7996L72.9726 24.9756H71.4846ZM83.5898 24.9756H82.0858V17.1516H83.4458L83.6058 18.3516C83.8511 17.9036 84.2031 17.5569 84.6618 17.3116C85.1311 17.0556 85.6431 16.9276 86.1978 16.9276C87.2218 16.9276 87.9791 17.2209 88.4698 17.8076C88.9605 18.3943 89.2058 19.1889 89.2058 20.1916V24.9756H87.7018V20.5276C87.7018 19.7383 87.5311 19.1729 87.1898 18.8316C86.8485 18.4796 86.3898 18.3036 85.8138 18.3036C85.1098 18.3036 84.5605 18.5329 84.1658 18.9916C83.7818 19.4503 83.5898 20.0636 83.5898 20.8316V24.9756ZM92.8249 24.9756H91.3209V13.1996H92.8249V24.9756ZM94.5269 21.0556C94.5269 20.2556 94.7029 19.5463 95.0549 18.9276C95.4069 18.3089 95.8869 17.8236 96.4949 17.4716C97.1136 17.1196 97.8176 16.9436 98.6069 16.9436C99.3963 16.9436 100.095 17.1196 100.703 17.4716C101.311 17.8236 101.791 18.3089 102.143 18.9276C102.495 19.5463 102.671 20.2556 102.671 21.0556C102.671 21.8556 102.495 22.5649 102.143 23.1836C101.791 23.8023 101.311 24.2876 100.703 24.6396C100.095 24.9916 99.3963 25.1676 98.6069 25.1676C97.8176 25.1676 97.1136 24.9916 96.4949 24.6396C95.8869 24.2876 95.4069 23.8023 95.0549 23.1836C94.7029 22.5649 94.5269 21.8556 94.5269 21.0556ZM96.0469 21.0556C96.0469 21.5996 96.1536 22.0796 96.3669 22.4956C96.5909 22.9116 96.8949 23.2369 97.2789 23.4716C97.6629 23.7063 98.1056 23.8236 98.6069 23.8236C99.1083 23.8236 99.5509 23.7063 99.9349 23.4716C100.319 23.2369 100.618 22.9116 100.831 22.4956C101.055 22.0796 101.167 21.5996 101.167 21.0556C101.167 20.5009 101.055 20.0209 100.831 19.6156C100.618 19.1996 100.319 18.8743 99.9349 18.6396C99.5509 18.4049 99.1083 18.2876 98.6069 18.2876C98.1056 18.2876 97.6629 18.4049 97.2789 18.6396C96.8949 18.8743 96.5909 19.1996 96.3669 19.6156C96.1536 20.0209 96.0469 20.5009 96.0469 21.0556ZM106.624 25.1676C105.792 25.1676 105.136 24.9489 104.656 24.5116C104.186 24.0743 103.952 23.5036 103.952 22.7996C103.952 22.0849 104.208 21.5143 104.72 21.0876C105.232 20.6503 105.946 20.3943 106.864 20.3196L109.328 20.1276V19.9036C109.328 19.4663 109.248 19.1196 109.088 18.8636C108.928 18.5969 108.709 18.4103 108.432 18.3036C108.154 18.1863 107.84 18.1276 107.488 18.1276C106.858 18.1276 106.368 18.2609 106.016 18.5276C105.674 18.7836 105.504 19.1516 105.504 19.6316H104.192C104.192 19.0876 104.33 18.6129 104.608 18.2076C104.885 17.8023 105.274 17.4876 105.776 17.2636C106.288 17.0396 106.88 16.9276 107.552 16.9276C108.202 16.9276 108.768 17.0449 109.248 17.2796C109.738 17.5036 110.117 17.8503 110.384 18.3196C110.661 18.7783 110.8 19.3596 110.8 20.0636V24.9756H109.52L109.36 23.7116C109.157 24.1596 108.805 24.5169 108.304 24.7836C107.813 25.0396 107.253 25.1676 106.624 25.1676ZM107.056 23.9996C107.77 23.9996 108.33 23.7863 108.736 23.3596C109.141 22.9223 109.344 22.3356 109.344 21.5996V21.1836L107.344 21.3436C106.682 21.4076 106.202 21.5623 105.904 21.8076C105.616 22.0529 105.472 22.3676 105.472 22.7516C105.472 23.1676 105.61 23.4823 105.888 23.6956C106.176 23.8983 106.565 23.9996 107.056 23.9996ZM116.019 25.1676C115.261 25.1676 114.611 24.9969 114.067 24.6556C113.523 24.3036 113.101 23.8183 112.803 23.1996C112.515 22.5809 112.371 21.8769 112.371 21.0876C112.371 20.2876 112.52 19.5783 112.819 18.9596C113.117 18.3303 113.544 17.8343 114.099 17.4716C114.653 17.1089 115.315 16.9276 116.083 16.9276C116.691 16.9276 117.229 17.0556 117.699 17.3116C118.179 17.5569 118.552 17.9249 118.819 18.4156V13.1996H120.307V24.9756H118.963L118.835 23.5516C118.579 24.0743 118.2 24.4743 117.699 24.7516C117.208 25.0289 116.648 25.1676 116.019 25.1676ZM116.323 23.8076C116.835 23.8076 117.272 23.6903 117.635 23.4556C118.008 23.2209 118.296 22.8956 118.499 22.4796C118.701 22.0636 118.803 21.5836 118.803 21.0396C118.803 20.4956 118.701 20.0209 118.499 19.6156C118.296 19.1996 118.008 18.8743 117.635 18.6396C117.272 18.4049 116.835 18.2876 116.323 18.2876C115.811 18.2876 115.373 18.4103 115.011 18.6556C114.648 18.8903 114.371 19.2156 114.179 19.6316C113.987 20.0369 113.891 20.5063 113.891 21.0396C113.891 21.5836 113.987 22.0636 114.179 22.4796C114.371 22.8956 114.648 23.2209 115.011 23.4556C115.373 23.6903 115.811 23.8076 116.323 23.8076ZM127.587 24.9756H125.955L130.179 13.4076H131.923L136.163 24.9756H134.515L133.475 22.0956H128.611L127.587 24.9756ZM130.851 15.9036L129.091 20.7356H133.011L131.235 15.9036C131.203 15.7863 131.166 15.6689 131.123 15.5516C131.081 15.4236 131.054 15.3169 131.043 15.2316C131.022 15.3169 130.995 15.4236 130.963 15.5516C130.931 15.6689 130.894 15.7863 130.851 15.9036ZM137.445 28.4796V17.1516H138.805L138.917 18.5596C139.173 18.0156 139.552 17.6103 140.053 17.3436C140.565 17.0663 141.131 16.9276 141.749 16.9276C142.496 16.9276 143.141 17.1036 143.685 17.4556C144.229 17.7969 144.645 18.2769 144.933 18.8956C145.232 19.5036 145.381 20.2076 145.381 21.0076C145.381 21.8076 145.237 22.5223 144.949 23.1516C144.672 23.7809 144.261 24.2769 143.717 24.6396C143.184 25.0023 142.528 25.1836 141.749 25.1836C141.12 25.1836 140.56 25.0556 140.069 24.7996C139.579 24.5436 139.205 24.1756 138.949 23.6956V28.4796H137.445ZM138.965 21.0716C138.965 21.5943 139.061 22.0689 139.253 22.4956C139.456 22.9116 139.739 23.2369 140.101 23.4716C140.475 23.7063 140.917 23.8236 141.429 23.8236C141.941 23.8236 142.379 23.7063 142.741 23.4716C143.104 23.2263 143.381 22.8956 143.573 22.4796C143.776 22.0636 143.877 21.5943 143.877 21.0716C143.877 20.5276 143.776 20.0476 143.573 19.6316C143.381 19.2156 143.104 18.8903 142.741 18.6556C142.379 18.4209 141.941 18.3036 141.429 18.3036C140.917 18.3036 140.475 18.4209 140.101 18.6556C139.739 18.8903 139.456 19.2156 139.253 19.6316C139.061 20.0476 138.965 20.5276 138.965 21.0716ZM147.039 28.4796V17.1516H148.399L148.511 18.5596C148.767 18.0156 149.146 17.6103 149.647 17.3436C150.159 17.0663 150.724 16.9276 151.343 16.9276C152.09 16.9276 152.735 17.1036 153.279 17.4556C153.823 17.7969 154.239 18.2769 154.527 18.8956C154.826 19.5036 154.975 20.2076 154.975 21.0076C154.975 21.8076 154.831 22.5223 154.543 23.1516C154.266 23.7809 153.855 24.2769 153.311 24.6396C152.778 25.0023 152.122 25.1836 151.343 25.1836C150.714 25.1836 150.154 25.0556 149.663 24.7996C149.172 24.5436 148.799 24.1756 148.543 23.6956V28.4796H147.039ZM148.559 21.0716C148.559 21.5943 148.655 22.0689 148.847 22.4956C149.05 22.9116 149.332 23.2369 149.695 23.4716C150.068 23.7063 150.511 23.8236 151.023 23.8236C151.535 23.8236 151.972 23.7063 152.335 23.4716C152.698 23.2263 152.975 22.8956 153.167 22.4796C153.37 22.0636 153.471 21.5943 153.471 21.0716C153.471 20.5276 153.37 20.0476 153.167 19.6316C152.975 19.2156 152.698 18.8903 152.335 18.6556C151.972 18.4209 151.535 18.3036 151.023 18.3036C150.511 18.3036 150.068 18.4209 149.695 18.6556C149.332 18.8903 149.05 19.2156 148.847 19.6316C148.655 20.0476 148.559 20.5276 148.559 21.0716ZM160.496 21.0556C160.496 20.2556 160.672 19.5463 161.024 18.9276C161.376 18.3089 161.856 17.8236 162.464 17.4716C163.082 17.1196 163.786 16.9436 164.576 16.9436C165.365 16.9436 166.064 17.1196 166.672 17.4716C167.28 17.8236 167.76 18.3089 168.112 18.9276C168.464 19.5463 168.64 20.2556 168.64 21.0556C168.64 21.8556 168.464 22.5649 168.112 23.1836C167.76 23.8023 167.28 24.2876 166.672 24.6396C166.064 24.9916 165.365 25.1676 164.576 25.1676C163.786 25.1676 163.082 24.9916 162.464 24.6396C161.856 24.2876 161.376 23.8023 161.024 23.1836C160.672 22.5649 160.496 21.8556 160.496 21.0556ZM162.016 21.0556C162.016 21.5996 162.122 22.0796 162.336 22.4956C162.56 22.9116 162.864 23.2369 163.248 23.4716C163.632 23.7063 164.074 23.8236 164.576 23.8236C165.077 23.8236 165.52 23.7063 165.904 23.4716C166.288 23.2369 166.586 22.9116 166.8 22.4956C167.024 22.0796 167.136 21.5996 167.136 21.0556C167.136 20.5009 167.024 20.0209 166.8 19.6156C166.586 19.1996 166.288 18.8743 165.904 18.6396C165.52 18.4049 165.077 18.2876 164.576 18.2876C164.074 18.2876 163.632 18.4049 163.248 18.6396C162.864 18.8743 162.56 19.1996 162.336 19.6156C162.122 20.0209 162.016 20.5009 162.016 21.0556ZM171.809 24.9756H170.305V17.1516H171.665L171.825 18.3516C172.07 17.9036 172.422 17.5569 172.881 17.3116C173.35 17.0556 173.862 16.9276 174.417 16.9276C175.441 16.9276 176.198 17.2209 176.689 17.8076C177.179 18.3943 177.425 19.1889 177.425 20.1916V24.9756H175.921V20.5276C175.921 19.7383 175.75 19.1729 175.409 18.8316C175.067 18.4796 174.609 18.3036 174.033 18.3036C173.329 18.3036 172.779 18.5329 172.385 18.9916C172.001 19.4503 171.809 20.0636 171.809 20.8316V24.9756Z" fill="white"/>
<path d="M193.432 12.4756C192.539 12.4756 191.792 12.6756 191.192 13.0756C190.592 13.4623 190.139 14.0089 189.832 14.7156C189.526 15.4223 189.372 16.2556 189.372 17.2156C189.372 18.2023 189.546 19.0289 189.892 19.6956C190.239 20.3623 190.712 20.8623 191.312 21.1956C191.926 21.5156 192.626 21.6756 193.412 21.6756C194.079 21.6756 194.646 21.5889 195.112 21.4156C195.579 21.2423 195.952 21.0023 196.232 20.6956C196.526 20.3889 196.739 20.0423 196.872 19.6556C197.019 19.2689 197.092 18.8689 197.092 18.4556V17.2756L198.632 18.8156H193.152V15.9756H200.112V24.4756H197.332L197.072 22.4556L197.432 22.7556C197.219 23.1423 196.886 23.4823 196.432 23.7756C195.992 24.0689 195.472 24.2956 194.872 24.4556C194.286 24.6156 193.659 24.6956 192.992 24.6956C191.619 24.6956 190.399 24.3823 189.332 23.7556C188.279 23.1156 187.452 22.2289 186.852 21.0956C186.252 19.9623 185.952 18.6356 185.952 17.1156C185.952 15.6223 186.266 14.3023 186.892 13.1556C187.519 11.9956 188.399 11.0889 189.532 10.4356C190.666 9.76892 191.992 9.43559 193.512 9.43559C194.699 9.43559 195.766 9.65559 196.712 10.0956C197.672 10.5223 198.452 11.1356 199.052 11.9356C199.652 12.7223 200.006 13.6489 200.112 14.7156H196.712C196.526 13.9289 196.126 13.3623 195.512 13.0156C194.899 12.6556 194.206 12.4756 193.432 12.4756ZM201.868 19.4556C201.868 18.4023 202.101 17.4823 202.568 16.6956C203.048 15.8956 203.701 15.2756 204.528 14.8356C205.368 14.3956 206.321 14.1756 207.388 14.1756C208.454 14.1756 209.401 14.3956 210.228 14.8356C211.054 15.2756 211.701 15.8956 212.168 16.6956C212.648 17.4823 212.888 18.4023 212.888 19.4556C212.888 20.5089 212.648 21.4289 212.168 22.2156C211.701 23.0023 211.054 23.6156 210.228 24.0556C209.401 24.4956 208.454 24.7156 207.388 24.7156C206.321 24.7156 205.368 24.4956 204.528 24.0556C203.701 23.6156 203.048 23.0023 202.568 22.2156C202.101 21.4289 201.868 20.5089 201.868 19.4556ZM204.968 19.4356C204.968 19.9423 205.068 20.3889 205.268 20.7756C205.481 21.1489 205.768 21.4423 206.128 21.6556C206.488 21.8556 206.908 21.9556 207.388 21.9556C207.868 21.9556 208.288 21.8556 208.648 21.6556C209.008 21.4423 209.288 21.1489 209.488 20.7756C209.688 20.3889 209.788 19.9423 209.788 19.4356C209.788 18.9289 209.688 18.4889 209.488 18.1156C209.288 17.7423 209.008 17.4556 208.648 17.2556C208.288 17.0423 207.868 16.9356 207.388 16.9356C206.908 16.9356 206.488 17.0423 206.128 17.2556C205.768 17.4556 205.481 17.7423 205.268 18.1156C205.068 18.4889 204.968 18.9289 204.968 19.4356ZM214.133 19.4556C214.133 18.4023 214.367 17.4823 214.833 16.6956C215.313 15.8956 215.967 15.2756 216.793 14.8356C217.633 14.3956 218.587 14.1756 219.653 14.1756C220.72 14.1756 221.667 14.3956 222.493 14.8356C223.32 15.2756 223.967 15.8956 224.433 16.6956C224.913 17.4823 225.153 18.4023 225.153 19.4556C225.153 20.5089 224.913 21.4289 224.433 22.2156C223.967 23.0023 223.32 23.6156 222.493 24.0556C221.667 24.4956 220.72 24.7156 219.653 24.7156C218.587 24.7156 217.633 24.4956 216.793 24.0556C215.967 23.6156 215.313 23.0023 214.833 22.2156C214.367 21.4289 214.133 20.5089 214.133 19.4556ZM217.233 19.4356C217.233 19.9423 217.333 20.3889 217.533 20.7756C217.747 21.1489 218.033 21.4423 218.393 21.6556C218.753 21.8556 219.173 21.9556 219.653 21.9556C220.133 21.9556 220.553 21.8556 220.913 21.6556C221.273 21.4423 221.553 21.1489 221.753 20.7756C221.953 20.3889 222.053 19.9423 222.053 19.4356C222.053 18.9289 221.953 18.4889 221.753 18.1156C221.553 17.7423 221.273 17.4556 220.913 17.2556C220.553 17.0423 220.133 16.9356 219.653 16.9356C219.173 16.9356 218.753 17.0423 218.393 17.2556C218.033 17.4556 217.747 17.7423 217.533 18.1156C217.333 18.4889 217.233 18.9289 217.233 19.4356ZM226.439 19.2956C226.439 18.2823 226.639 17.3889 227.039 16.6156C227.452 15.8423 228.019 15.2356 228.739 14.7956C229.472 14.3556 230.306 14.1356 231.239 14.1356C232.026 14.1356 232.699 14.2956 233.259 14.6156C233.832 14.9356 234.226 15.3556 234.439 15.8756L234.139 16.0756L234.379 14.4756H237.279V23.8356C237.279 25.0223 237.059 26.0423 236.619 26.8956C236.179 27.7623 235.552 28.4223 234.739 28.8756C233.926 29.3423 232.946 29.5756 231.799 29.5756C230.266 29.5756 229.019 29.1623 228.059 28.3356C227.099 27.5223 226.546 26.4089 226.399 24.9956H229.519C229.546 25.5556 229.759 25.9889 230.159 26.2956C230.559 26.6156 231.099 26.7756 231.779 26.7756C232.526 26.7756 233.112 26.5689 233.539 26.1556C233.979 25.7423 234.199 25.1823 234.199 24.4756V22.3556L234.539 22.6156C234.326 23.1356 233.912 23.5556 233.299 23.8756C232.686 24.1956 231.979 24.3556 231.179 24.3556C230.246 24.3556 229.419 24.1423 228.699 23.7156C227.992 23.2889 227.439 22.6956 227.039 21.9356C226.639 21.1756 226.439 20.2956 226.439 19.2956ZM229.539 19.2156C229.539 19.6956 229.639 20.1223 229.839 20.4956C230.039 20.8556 230.312 21.1423 230.659 21.3556C231.006 21.5689 231.406 21.6756 231.859 21.6756C232.326 21.6756 232.732 21.5756 233.079 21.3756C233.439 21.1623 233.712 20.8756 233.899 20.5156C234.099 20.1423 234.199 19.7089 234.199 19.2156C234.199 18.7223 234.099 18.3023 233.899 17.9556C233.712 17.5956 233.439 17.3156 233.079 17.1156C232.732 16.9156 232.319 16.8156 231.839 16.8156C231.386 16.8156 230.986 16.9156 230.639 17.1156C230.292 17.3156 230.019 17.5956 229.819 17.9556C229.632 18.3156 229.539 18.7356 229.539 19.2156ZM242.675 24.4756H239.595V9.39559H242.675V24.4756ZM249.626 24.7356C248.626 24.7356 247.733 24.5089 246.946 24.0556C246.173 23.6023 245.559 22.9823 245.106 22.1956C244.666 21.3956 244.446 20.4823 244.446 19.4556C244.446 18.4156 244.659 17.5023 245.086 16.7156C245.526 15.9156 246.133 15.2889 246.906 14.8356C247.679 14.3823 248.566 14.1556 249.566 14.1556C250.619 14.1556 251.526 14.3756 252.286 14.8156C253.046 15.2423 253.633 15.8556 254.046 16.6556C254.459 17.4423 254.666 18.3823 254.666 19.4756V20.2556L246.066 20.2956L246.106 18.3956H251.606C251.606 17.8623 251.426 17.4423 251.066 17.1356C250.706 16.8156 250.213 16.6556 249.586 16.6556C249.066 16.6556 248.639 16.7556 248.306 16.9556C247.986 17.1556 247.746 17.4689 247.586 17.8956C247.426 18.3089 247.346 18.8423 247.346 19.4956C247.346 20.4289 247.533 21.1223 247.906 21.5756C248.293 22.0156 248.886 22.2356 249.686 22.2356C250.273 22.2356 250.759 22.1356 251.146 21.9356C251.533 21.7356 251.779 21.4556 251.886 21.0956H254.706C254.533 22.2023 253.986 23.0889 253.066 23.7556C252.146 24.4089 250.999 24.7356 249.626 24.7356ZM265.403 9.67559V24.4756H262.163V9.67559H265.403ZM268.163 19.5556H264.603V16.6756H267.443C268.229 16.6756 268.816 16.5089 269.203 16.1756C269.589 15.8289 269.783 15.3089 269.783 14.6156C269.783 13.9223 269.589 13.4089 269.203 13.0756C268.816 12.7289 268.229 12.5556 267.443 12.5556H264.603V9.67559H268.163C269.176 9.67559 270.056 9.88225 270.803 10.2956C271.563 10.7089 272.149 11.2889 272.563 12.0356C272.989 12.7689 273.203 13.6289 273.203 14.6156C273.203 15.6023 272.989 16.4689 272.563 17.2156C272.149 17.9489 271.563 18.5223 270.803 18.9356C270.056 19.3489 269.176 19.5556 268.163 19.5556ZM277.949 24.4756H274.869V9.39559H277.949V24.4756ZM283.279 24.7356C282.226 24.7356 281.386 24.4489 280.759 23.8756C280.146 23.2889 279.839 22.5089 279.839 21.5356C279.839 20.6156 280.153 19.8823 280.779 19.3356C281.419 18.7889 282.339 18.4689 283.539 18.3756L286.339 18.1556V17.9956C286.339 17.6623 286.273 17.3889 286.139 17.1756C286.006 16.9489 285.813 16.7823 285.559 16.6756C285.319 16.5556 285.013 16.4956 284.639 16.4956C283.986 16.4956 283.486 16.6156 283.139 16.8556C282.806 17.0956 282.639 17.4423 282.639 17.8956H280.079C280.079 17.1356 280.273 16.4756 280.659 15.9156C281.046 15.3556 281.593 14.9223 282.299 14.6156C283.019 14.3089 283.853 14.1556 284.799 14.1556C285.773 14.1556 286.593 14.3289 287.259 14.6756C287.939 15.0223 288.453 15.5289 288.799 16.1956C289.159 16.8623 289.339 17.6756 289.339 18.6356V24.4756H286.619L286.419 23.1556C286.259 23.6089 285.879 23.9889 285.279 24.2956C284.693 24.5889 284.026 24.7356 283.279 24.7356ZM284.359 22.4556C284.946 22.4556 285.426 22.3156 285.799 22.0356C286.173 21.7423 286.359 21.3089 286.359 20.7356V20.1956L284.799 20.3356C284.133 20.3889 283.659 20.5023 283.379 20.6756C283.113 20.8356 282.979 21.0756 282.979 21.3956C282.979 21.7556 283.093 22.0223 283.319 22.1956C283.546 22.3689 283.893 22.4556 284.359 22.4556ZM293.495 14.4756L296.435 23.1156L294.935 26.6756L290.195 14.4756H293.495ZM290.455 29.2756V26.6956H292.155C292.502 26.6956 292.789 26.6489 293.015 26.5556C293.242 26.4756 293.435 26.3356 293.595 26.1356C293.755 25.9356 293.902 25.6556 294.035 25.2956L298.095 14.4756H301.295L296.215 26.6556C295.802 27.6689 295.295 28.4023 294.695 28.8556C294.109 29.3223 293.375 29.5556 292.495 29.5556C292.122 29.5556 291.762 29.5289 291.415 29.4756C291.082 29.4356 290.762 29.3689 290.455 29.2756Z" fill="white"/>
<defs>
<linearGradient id="paint0_linear_366_1359" x1="-2.74864" y1="-9.17107" x2="10.6537" y2="4.23131" gradientUnits="userSpaceOnUse">
<stop stop-color="#32A071"/>
<stop offset="0.07" stop-color="#2DA771"/>
<stop offset="0.48" stop-color="#15CF74"/>
<stop offset="0.8" stop-color="#06E775"/>
<stop offset="1" stop-color="#00F076"/>
</linearGradient>
<linearGradient id="paint1_linear_366_1359" x1="20.3757" y1="20.0081" x2="-9.64771" y2="50.0184" gradientUnits="userSpaceOnUse">
<stop stop-color="#FF3A44"/>
<stop offset="1" stop-color="#C31162"/>
</linearGradient>
<linearGradient id="paint2_linear_366_1359" x1="32.2479" y1="16.9743" x2="0.338148" y2="16.9743" gradientUnits="userSpaceOnUse">
<stop stop-color="#FFE000"/>
<stop offset="0.41" stop-color="#FFBD00"/>
<stop offset="0.78" stop-color="#FFA500"/>
<stop offset="1" stop-color="#FF9C00"/>
</linearGradient>
<linearGradient id="paint3_linear_366_1359" x1="16.3787" y1="2.08104" x2="-5.75633" y2="24.2161" gradientUnits="userSpaceOnUse">
<stop stop-color="#00A0FF"/>
<stop offset="0.01" stop-color="#00A1FF"/>
<stop offset="0.26" stop-color="#00BEFF"/>
<stop offset="0.51" stop-color="#00D2FF"/>
<stop offset="0.76" stop-color="#00DFFF"/>
<stop offset="1" stop-color="#00E3FF"/>
</linearGradient>
</defs>
</svg>
